<svg width="380" height="497" viewBox="0 0 380 497" fill="none" xmlns="http://www.w3.org/2000/svg">
<path d="M-108.339 186.457C-113.581 188.891 -118.824 191.138 -123.879 193.759C-133.241 198.627 -145.038 193.197 -146.91 180.839C-147.284 178.78 -147.284 176.533 -147.284 174.473C-147.284 157.622 -147.284 140.77 -147.284 123.919C-147.284 123.17 -147.284 122.421 -147.284 121.859C-147.472 113.621 -143.727 107.442 -137.361 102.574C-135.301 101.076 -133.241 99.765 -130.995 98.6416C-118.262 92.0882 -105.343 85.722 -92.6107 79.3559C-89.4276 77.6708 -86.0573 76.5474 -82.3125 76.1729C-77.2571 75.7985 -72.3889 75.0494 -67.3334 75.0494C-58.346 74.8622 -49.3585 75.0494 -40.371 75.0494C-37.1879 75.0494 -33.8177 75.2367 -30.8219 74.3006C-17.9024 69.8068 -4.6084 70.7429 8.31108 73.7387C16.3624 75.6111 21.6049 81.4156 21.7922 90.0285C21.9794 99.016 25.5369 99.3905 32.2775 95.2712C57.5547 80.1049 84.7045 70.5557 114.101 66.9982C146.868 62.8789 178.511 65.8748 209.218 78.607L209.406 78.7942C209.967 80.8538 212.027 80.1049 213.15 81.0411C222.325 85.9093 231.5 90.5903 240.674 95.6457C253.032 102.386 264.079 110.999 274.752 119.987C276.062 120.548 276.999 121.297 277.935 122.234H277.748C281.68 125.042 285.237 128.225 288.982 131.408C319.315 161.741 335.604 199.002 342.907 240.756C347.4 266.969 346.464 292.995 339.724 318.647C337.477 321.456 337.477 325.2 335.792 328.384C334.481 331.379 332.796 334.188 331.86 337.184C320.813 369.389 303.025 397.288 278.309 420.692C275.875 422.939 273.816 425.373 271.569 427.62C263.518 437.918 252.845 444.846 241.798 451.399C210.903 469.749 177.013 478.362 141.251 479.298C101.369 480.234 61.674 479.485 21.7922 479.485C15.6133 479.485 9.62171 478.362 3.8173 476.49C-0.11471 476.302 -4.04682 475.928 -7.97883 475.928C-29.5113 475.928 -51.0437 475.928 -72.5762 475.928C-75.0103 475.928 -77.6317 476.115 -80.0658 475.928C-89.9894 475.179 -95.981 469.936 -97.1044 458.702C-97.2917 456.268 -97.1044 453.646 -97.1044 451.212C-97.1044 440.54 -97.1044 429.68 -97.1044 419.007C-97.1044 416.573 -97.4788 413.952 -97.666 411.518C-101.224 406.088 -100.849 399.909 -100.849 393.917C-100.849 331.005 -100.849 267.905 -100.849 204.993C-100.849 199.751 -100.288 194.133 -102.722 189.265C-104.407 187.018 -105.717 184.397 -108.339 186.457Z" fill="#233878"/>
<path d="M209.031 78.2324C207.345 78.2324 205.473 78.6069 203.788 78.2324C194.801 75.9855 185.813 73.7386 176.826 71.3045C174.392 70.5556 171.957 70.1812 169.523 70.1812C167.464 70.1812 165.029 70.3684 163.157 69.6195C158.663 67.9343 153.982 68.1215 149.301 68.1215C143.497 68.1215 137.88 68.1215 132.075 68.1215C126.646 68.1215 121.216 67.747 116.16 69.8067C115.224 70.1811 114.101 70.1812 112.977 70.1812C102.117 70.7429 91.8191 73.3641 81.521 76.5472C72.908 79.1685 64.4822 81.9771 56.431 85.9091C51.1883 88.3432 45.9457 90.4029 41.0775 93.586C36.5837 96.5818 31.341 98.2669 27.2218 101.637C26.4728 102.386 25.3494 102.573 24.4132 103.135C21.4174 104.82 19.3578 103.697 19.3578 100.514C19.1706 96.5818 19.1704 92.6497 19.1704 88.7177C19.1704 85.7219 17.8599 83.2878 15.8002 81.041C11.681 76.5472 6.06373 75.0493 0.25933 74.6748C-6.10679 74.3003 -12.66 74.6749 -19.0261 74.4876C-22.9581 74.4876 -26.8903 74.1131 -30.8223 74.1131C-30.4478 73.1769 -30.2606 72.0535 -29.6989 71.1173C-22.771 60.2575 -15.8431 49.2104 -8.728 38.5377C1.94462 22.6224 16.5491 11.2009 34.8985 5.02207C59.2396 -3.21644 82.8317 -1.3441 105.675 10.8264C108.483 12.3243 111.292 14.1967 113.913 15.8819C144.059 35.3547 174.204 54.6403 204.35 74.1131C206.035 75.2366 207.907 76.1728 209.031 78.2324Z" fill="#025D92"/>
<path d="M243.109 447.467C243.858 446.718 244.607 445.969 245.356 445.407C252.845 440.727 259.96 435.484 266.888 430.054C268.199 428.931 269.884 427.994 271.195 427.058C270.446 428.743 269.884 430.428 268.761 431.926C251.909 458.14 235.058 484.54 218.206 510.754C206.41 528.916 190.121 541.087 169.15 547.265C144.996 554.381 122.34 551.197 100.62 538.84C95.9392 536.218 91.4456 533.035 86.9519 530.227C66.3556 516.933 45.9465 503.826 25.3503 490.532C23.6651 489.409 21.4184 488.66 20.2949 486.6C24.4142 482.481 29.6568 483.417 34.525 483.417C62.4236 483.23 90.5093 483.604 118.408 483.23C157.728 482.668 195.176 474.991 230.002 455.706C234.871 453.272 239.177 450.65 243.109 447.467Z" fill="#F28E00"/>
<path d="M337.662 317.898C338.786 310.034 339.909 302.357 341.033 294.493C342.905 281.574 342.905 268.654 341.782 255.922C339.722 231.768 333.73 208.738 323.62 186.644C315.381 168.669 304.708 152.192 291.789 137.213C289.917 134.966 288.044 132.906 286.359 130.659C285.61 128.6 286.359 127.663 288.606 128.038C290.665 129.348 292.912 130.472 294.972 131.783C308.64 140.583 322.121 149.196 335.603 157.996C337.662 159.307 339.909 160.617 341.969 162.115C366.31 179.716 378.855 203.495 379.417 233.453C379.791 248.807 376.234 263.412 368.182 276.705C359.382 291.497 349.646 305.54 340.284 320.145C338.224 320.894 337.288 320.145 337.662 317.898Z" fill="#D41217"/>
<path d="M243.108 447.468C242.359 450.089 240.486 451.774 238.427 453.085C232.997 456.455 227.38 459.638 221.762 462.634C206.034 471.434 188.996 476.49 171.582 481.171C169.897 481.545 168.025 481.92 166.34 482.107C164.842 482.294 163.344 481.92 162.033 482.481C156.229 484.728 150.05 484.167 144.058 484.354C141.624 484.354 139.003 484.354 136.569 485.103C132.45 486.601 128.143 486.413 123.836 486.413C93.5037 486.413 62.9839 486.413 32.6512 486.413C28.7192 486.413 24.7871 486.413 20.8551 486.601C14.489 483.979 9.05909 480.047 3.81641 475.928C7.74842 475.741 11.6805 475.366 15.6125 475.366C56.4306 475.366 97.4359 475.366 138.254 475.366C172.893 475.366 205.66 467.128 236.367 450.651C238.427 449.34 240.486 447.468 243.108 447.468Z" fill="#DE7210"/>
<path d="M288.42 128.225C287.672 128.974 286.923 129.91 286.174 130.846C282.616 128.599 279.433 125.791 277.561 121.859C277.935 121.859 278.31 121.671 278.497 121.859C282.429 123.169 285.612 125.416 288.42 128.225Z" fill="#D24946"/>
<path d="M212.964 80.6658C210.155 80.6658 210.155 80.6658 209.219 78.4189C210.904 78.4189 212.215 78.7934 212.964 80.6658Z" fill="#025D92"/>
<path d="M277.746 121.858C276.061 121.858 275.124 120.922 274.563 119.612C276.248 119.612 277.558 119.986 277.746 121.858Z" fill="#D36369"/>
<path d="M138.815 80.8529C247.413 81.0401 329.237 169.23 329.611 271.462C329.986 372.196 249.286 462.071 139.377 462.446C35.6465 462.82 -51.6069 378.75 -51.4196 272.024C-51.2324 163.051 36.957 80.6656 138.815 80.8529Z" fill="white"/>
<path d="M-82.5022 460.761C-83.0639 459.825 -84.0002 459.076 -84.0002 458.14C-84.1874 454.582 -84.1874 451.025 -84.1874 447.467C-84.1874 356.656 -84.1874 265.846 -84.1874 175.035C-84.1874 162.115 -84.1873 161.741 -85.498 161.741C-89.9917 161.928 -93.3621 164.924 -97.1069 166.609C-105.907 170.728 -114.52 175.222 -123.133 179.528C-125.006 180.465 -127.065 181.214 -129.125 181.963C-131.372 182.712 -133.806 181.401 -133.993 179.154C-134.18 177.282 -134.367 175.596 -134.367 173.724C-134.367 157.247 -134.18 140.77 -134.555 124.106C-134.742 116.991 -131.559 112.684 -125.567 109.688C-118.452 106.318 -111.337 102.761 -104.409 99.2031C-99.5411 96.769 -94.6727 94.522 -89.9918 91.9007C-84.7491 89.0921 -79.3193 87.5943 -73.5149 87.407C-71.0808 87.407 -68.4594 87.2197 -66.0253 87.2197C-45.2418 87.2197 -24.4583 87.2197 -3.48753 87.2197C-1.61514 87.2197 0.0700573 87.2198 1.94245 87.407C5.49998 87.5943 7.74676 90.0283 7.934 93.7731C8.12123 96.2072 8.12123 98.8285 7.934 101.263C7.934 105.944 7.74685 110.625 7.55961 115.306C5.31274 119.612 1.19354 122.046 -1.98952 125.229C-24.6454 147.511 -41.3098 173.537 -52.1696 203.308C-53.293 206.304 -54.6038 209.299 -55.7272 212.295C-79.3193 283.259 -71.4552 349.354 -24.271 409.083C-10.4153 426.496 6.62351 439.978 24.9729 451.961C27.9687 453.833 31.5261 455.144 32.275 458.702C32.275 460.012 31.7134 460.574 30.9645 460.761C-7.23226 461.51 -44.8672 462.259 -82.5022 460.761Z" fill="white"/>
<path d="M-82.5 460.761C-78.568 460.761 -74.6361 460.574 -70.7041 460.574C-39.4352 460.574 -8.16616 460.574 23.1027 460.574C25.1623 460.574 27.409 460.386 29.4687 460.199C30.2176 460.199 30.2178 459.825 29.6561 459.076C29.0944 458.701 28.7198 457.952 28.1581 457.765C17.2982 452.148 7.37453 445.033 -1.61293 436.794C-7.2301 433.424 -11.5365 428.556 -16.2174 424.062C-18.4643 421.815 -20.8985 419.568 -22.3964 416.573C-23.1453 415.262 -24.0816 414.326 -25.0178 413.202C-35.1287 402.342 -42.6181 389.797 -49.7332 376.878C-57.0355 363.584 -61.7166 349.167 -66.0231 334.749C-67.521 330.068 -68.2699 325.013 -69.0189 320.145C-69.5806 316.587 -69.7679 313.029 -70.8913 309.659C-71.453 307.599 -71.4529 305.353 -71.4529 303.293C-71.4529 292.433 -71.4529 281.761 -71.4529 270.901C-71.4529 267.718 -71.453 264.535 -70.1423 261.352C-69.5806 260.041 -69.5805 258.543 -69.3933 257.045C-68.4571 243.002 -63.9633 229.708 -59.2823 216.602C-58.7206 214.916 -57.7846 213.231 -55.9122 212.669C-56.2867 215.104 -56.4739 217.725 -57.0356 219.972C-58.5335 226.151 -59.8441 232.517 -60.9675 238.883C-64.3378 258.168 -64.525 277.454 -62.0909 296.74C-57.9717 331.192 -45.8012 362.648 -25.205 390.734C-4.23423 419.381 22.1664 441.475 54.3715 456.454C56.9929 457.578 59.4269 459.076 62.0483 460.386C62.2355 460.574 62.4229 460.948 62.4229 461.135C62.6101 462.072 62.2355 462.259 61.1121 462.259C49.316 462.259 37.52 462.633 25.5367 462.633C-6.66838 462.633 -39.0606 462.633 -71.2657 462.633C-74.0743 462.633 -77.07 462.446 -79.8786 462.446C-81.3765 462.446 -81.9383 461.697 -82.5 460.761Z" fill="#D5D3D4"/>
<path d="M33.7735 271.838C33.2117 252.365 37.7054 234.015 47.0674 216.976C62.4209 189.078 85.6387 171.103 116.72 163.801C126.831 161.367 137.317 160.805 147.802 161.554C198.544 165.486 235.43 203.683 243.855 249.182C248.911 276.144 245.728 302.17 232.059 326.324C215.77 355.159 191.241 373.321 158.474 378.938C119.342 385.679 86.0131 374.07 59.7997 344.112C43.3227 325.388 35.0841 303.106 33.9606 278.204C33.5862 276.144 33.7735 274.084 33.7735 271.838Z" fill="#233979"/>
<path d="M208.844 336.434C208.283 337.37 207.908 338.306 207.159 339.055C189.371 357.592 167.839 367.141 142.187 367.89C118.595 368.639 97.6245 361.524 79.6496 346.17C59.9895 329.319 49.1297 307.599 46.6956 281.76C45.3849 266.969 46.5084 252.364 51.3766 238.321C57.3682 221.095 66.9174 206.116 81.522 194.694C82.6454 193.758 83.9561 193.196 85.2668 192.635C111.855 177.656 139.379 177.094 167.09 188.141C193.116 198.626 210.342 218.286 219.892 244.5C221.015 247.496 221.951 250.679 219.517 253.675C216.896 255.36 214.087 254.611 211.466 253.862C203.04 251.615 196.299 254.049 190.869 260.602C189.184 261.913 187.499 262.849 185.252 262.662C182.444 261.726 180.571 259.479 178.324 257.794C167.652 250.304 157.541 251.428 148.366 260.602C146.119 262.849 144.622 266.032 141.251 266.969C140.128 266.781 139.379 266.22 138.817 265.471C138.255 264.534 138.068 263.411 137.694 262.475C136.945 259.853 137.694 255.734 133.949 255.734C129.455 255.734 130.391 260.228 129.83 263.037C129.268 265.658 129.642 269.403 126.272 270.152C122.527 271.088 120.842 267.53 118.783 265.096C115.412 261.351 114.102 253.3 107.735 255.547C101.182 257.794 104.74 265.471 103.991 270.713C103.242 276.892 105.114 283.446 101.931 289.624C95.7522 292.995 94.6287 287.565 92.9435 284.007C89.386 276.705 87.3265 268.466 83.9562 260.977C82.6455 257.981 81.5221 254.798 77.4028 254.798C73.4708 254.798 72.1601 257.981 70.8495 260.79C67.1047 268.841 64.4832 277.454 61.3001 285.88C60.5512 287.752 59.6151 290.186 61.6747 291.684C63.3599 292.807 65.045 291.684 66.5429 290.748C73.8452 285.692 81.1475 285.505 88.2625 290.935C92.1946 293.931 96.501 292.62 100.62 292.62C107.923 293.744 108.859 289.437 109.046 283.633C109.233 279.888 108.484 274.833 113.727 274.084C117.846 273.335 119.532 277.641 121.591 280.45C122.527 281.573 123.089 282.884 123.838 284.194C126.085 287.752 127.957 292.807 133.013 292.246C139.004 291.684 136.008 284.943 138.63 281.76C139.192 280.824 140.128 280.45 141.064 280.263C142.936 280.637 144.247 281.76 145.37 283.071C158.103 295.803 165.405 296.552 179.635 286.816C180.571 286.441 181.695 286.067 182.631 286.067C184.691 286.067 186.75 286.816 188.622 287.752C193.303 290.373 197.984 292.995 203.602 293.182C209.219 293.556 214.462 292.62 217.27 287.003C220.079 281.386 218.206 276.705 213.713 272.586C212.402 271.462 211.091 270.152 210.342 268.466C209.593 265.283 212.027 263.411 213.713 261.351C215.959 259.292 218.206 257.419 221.389 258.917C226.257 263.037 226.445 268.841 226.632 274.645C227.943 297.676 221.389 317.898 208.844 336.434Z" fill="#FBBE00"/>
<path d="M217.645 253.488C218.019 252.552 218.956 251.616 218.768 250.679C218.207 248.245 217.645 245.811 216.521 243.564C212.777 235.513 209.032 227.275 203.602 220.159C200.793 216.415 197.236 213.419 194.24 209.861C188.061 202.746 179.823 198.253 171.959 193.197C169.337 191.512 166.154 190.763 162.971 189.64C147.43 184.21 147.43 184.21 131.702 184.21C128.519 184.21 125.336 184.397 121.966 184.21C113.166 184.022 104.927 185.708 97.0631 189.078C93.1311 190.763 89.3863 192.823 84.8926 192.448C85.2671 191.886 85.6414 191.137 86.2032 190.763C95.5651 183.835 105.863 178.967 117.285 176.346C140.502 170.916 162.971 173.724 183.942 185.146C207.159 197.878 222.139 217.538 229.254 242.815C237.492 272.586 233.747 301.047 216.521 327.26C214.274 330.443 212.402 334.001 208.845 336.06C208.845 334.188 209.032 332.503 209.968 331.005C216.334 320.894 220.079 309.847 221.764 298.051C224.385 290.749 223.449 283.259 223.824 275.769C224.011 269.965 222.887 264.348 220.079 259.292C217.645 258.169 215.772 256.484 217.645 253.488Z" fill="#F18E00"/>
<path d="M139.94 281.573C139.753 285.131 139.753 288.689 139.566 292.246C139.378 294.68 138.068 295.991 135.446 295.991C133.574 295.991 131.889 295.991 130.016 295.804C128.518 295.804 127.208 294.867 126.459 293.744C124.586 290.748 122.527 287.752 120.654 284.757C119.157 282.322 117.659 279.888 116.161 277.454C115.412 276.144 114.288 275.582 113.726 276.144C113.352 276.705 112.79 277.267 112.79 277.829C112.603 281.761 112.79 285.693 112.603 289.625C112.603 291.123 112.416 292.433 112.042 293.744C111.667 294.68 111.105 295.616 109.795 295.616C107.36 295.616 104.739 295.616 102.305 295.616C101.743 295.616 101.182 294.868 100.807 294.306C99.4965 292.621 99.6836 290.748 100.62 288.876C100.433 287.565 100.058 286.067 100.058 284.757C100.058 275.395 100.058 266.22 100.058 256.858C100.058 255.36 100.245 254.049 100.62 252.551C100.807 251.99 101.369 251.428 102.118 251.054C102.679 250.679 103.428 250.679 104.177 250.679C114.101 250.679 112.79 249.743 117.846 257.794C119.906 261.165 121.965 264.535 124.025 267.718C124.399 268.28 125.148 268.467 125.71 268.654C126.646 268.841 126.833 268.28 126.833 267.343C126.833 263.411 126.833 259.479 127.021 255.547C127.021 254.424 127.208 253.3 127.395 252.364C127.582 251.803 128.331 251.054 128.893 251.054C131.702 250.866 134.51 250.866 137.319 251.054C138.068 251.054 139.378 252.364 139.378 252.926C139.753 257.232 139.753 261.539 139.94 265.658C142.561 268.654 142.749 272.399 142.374 276.144C142 278.578 141.063 280.076 139.94 281.573Z" fill="#253978"/>
<path d="M141.625 266.22C142.562 264.348 143.31 262.288 144.434 260.416C153.234 247.309 171.584 247.122 180.758 257.233C182.256 258.731 183.567 260.416 184.877 262.101C186.001 263.225 186.75 264.535 186.937 266.22C187.499 270.152 187.312 274.084 186.937 278.204C186.75 279.14 186.563 280.076 186.375 280.825C186.001 282.136 185.252 283.259 184.69 284.382C184.316 285.131 183.754 285.693 183.192 286.442C182.069 287.004 181.133 287.566 180.758 288.876C174.579 299.174 155.481 300.298 146.119 288.876C144.247 286.629 142.936 284.008 141.438 281.761C140.315 280.263 140.502 278.391 140.502 276.706C141.251 273.148 139.94 269.591 141.625 266.22Z" fill="#263978"/>
<path d="M100.619 289.25C100.619 291.123 100.62 292.808 100.807 294.68C96.8748 297.114 92.3809 296.178 88.2616 295.803C87.5127 295.803 86.3893 294.68 86.0149 293.744C84.8914 290.935 83.0191 289.999 80.2105 289.999C77.9636 289.999 75.904 289.999 73.6571 289.999C71.223 289.999 69.5377 290.935 68.7888 293.369C68.0398 295.242 66.542 296.178 64.6696 296.178C62.61 296.178 60.3631 296.178 58.3034 296.178C56.9928 296.178 55.6822 294.493 55.8695 293.182C55.8695 292.808 55.8694 292.433 56.0566 292.059C60.7376 279.701 65.6058 267.343 70.2868 254.798C71.4102 251.99 73.0953 250.866 75.9039 251.053C77.7763 251.053 79.4615 251.053 81.3339 251.241C82.4573 251.428 83.3934 251.802 83.7679 252.926C85.0785 256.296 86.5766 259.479 87.8872 262.849C91.0703 271.275 94.2533 279.701 97.4364 288.127C97.8109 290.186 99.3087 289.625 100.619 289.25Z" fill="#273A78"/>
<path d="M217.642 253.488C218.953 255.36 220.825 257.046 220.076 259.667C218.391 261.539 216.519 263.224 214.834 265.097C214.646 267.344 207.344 261.352 211.276 268.28C213.149 269.403 215.021 270.527 216.706 271.65C224.944 278.016 222.885 290.561 214.272 294.68C208.468 297.489 202.663 297.302 196.672 295.242C193.301 294.119 190.493 291.685 187.497 289.812C184.501 285.506 187.497 283.072 190.493 281.199C195.174 278.203 199.48 279.514 202.289 281.199C196.672 276.518 182.629 274.271 189.182 259.667C189.556 259.105 189.931 258.356 190.305 257.794C193.676 250.867 199.855 249.556 206.595 249.93C210.34 250.305 213.897 252.177 217.642 253.488Z" fill="#2B3B78"/>
<path d="M188.997 259.854C188.997 261.352 189.184 262.663 189.184 264.161C189.184 269.403 191.805 272.961 196.299 275.395C198.546 276.518 200.793 277.455 203.227 278.391C204.537 278.953 205.848 279.702 206.971 280.451C207.346 280.825 207.721 281.761 207.533 282.323C207.533 282.885 206.784 283.634 206.222 283.821C203.788 284.757 201.354 284.195 198.92 283.072C197.984 282.697 197.048 282.136 196.112 281.574C194.988 281.012 193.865 281.199 193.116 281.761C191.243 283.259 189.184 284.944 187.686 286.817C187.124 287.566 187.499 288.876 187.311 290C185.814 289.251 184.503 288.689 183.005 287.94C182.443 287.566 182.256 287.004 182.443 286.629C182.63 286.068 182.818 285.88 183.005 285.88C184.128 284.57 183.754 282.697 185.252 281.574C186.937 276.144 186.562 270.901 185.439 265.471C185.439 264.348 185.252 263.225 185.252 262.101C186.375 261.352 187.686 260.603 188.997 259.854Z" fill="#E9B117"/>
<path d="M211.089 268.093C208.842 267.344 206.408 266.782 204.348 265.658C203.599 265.284 203.599 263.973 203.225 263.037C204.161 262.663 205.284 261.914 206.033 262.101C209.029 262.85 212.025 263.973 214.833 264.909C214.459 265.284 213.897 265.846 213.523 266.22C212.774 266.969 211.838 267.531 211.089 268.093Z" fill="#EAA930"/>
<path d="M141.627 266.22C141.627 269.965 141.44 273.71 141.44 277.267C140.878 277.267 140.504 277.267 139.942 277.267C139.568 273.522 139.006 269.965 139.942 266.22C140.504 266.22 141.066 266.22 141.627 266.22Z" fill="#8A6D69"/>
<path d="M139.941 277.267C140.503 277.267 140.878 277.267 141.439 277.267C141.627 278.765 141.627 280.076 141.814 281.574H140.878H139.941C139.941 280.076 139.941 278.765 139.941 277.267Z" fill="#A98951"/>
<path d="M183.005 285.88C183.005 286.629 183.005 287.191 183.193 287.94C182.631 288.314 181.882 288.502 181.133 288.689C181.133 287.378 181.695 286.442 183.005 285.88Z" fill="#2B3B78"/>
<path d="M163.719 262.849C168.025 262.662 172.519 266.219 173.83 270.9C175.515 276.892 170.459 285.13 162.408 283.82C159.787 283.445 157.727 281.947 156.229 279.888C153.608 276.33 153.608 272.398 155.293 268.653C156.791 265.096 159.974 263.223 163.719 262.849Z" fill="#F1B700"/>
<path d="M185.252 265.471C185.626 266.033 186.375 266.595 186.562 267.157C187.686 271.463 187.686 275.582 186.375 279.889C186.188 280.451 185.626 281.012 185.065 281.574C185.252 276.144 185.252 270.901 185.252 265.471Z" fill="#2B3B78"/>
<path d="M185.063 281.573C185.063 283.446 184.689 284.944 182.816 285.88C182.816 284.007 183.191 282.322 185.063 281.573Z" fill="#2B3B78"/>
<path d="M79.6483 277.267C79.6483 278.203 77.9632 279.139 76.4653 278.952C75.5291 278.765 74.4057 277.641 74.5929 276.892C74.9674 275.207 75.3418 273.522 75.7163 271.837C75.9035 270.901 76.4653 270.526 77.4015 270.901C77.9632 271.088 78.712 271.462 78.8993 272.024C79.6482 273.709 80.0227 275.394 79.6483 277.267Z" fill="#D59F3C"/>
<path d="M-108.339 186.457C-113.581 188.891 -118.824 191.138 -123.879 193.759C-133.241 198.627 -145.038 193.197 -146.91 180.839C-147.284 178.78 -147.284 176.533 -147.284 174.473C-147.284 157.622 -147.284 140.77 -147.284 123.919C-147.284 123.17 -147.284 122.421 -147.284 121.859C-147.472 113.621 -143.727 107.442 -137.361 102.574C-135.301 101.076 -133.241 99.765 -130.995 98.6416C-118.262 92.0882 -105.343 85.722 -92.6107 79.3559C-89.4276 77.6708 -86.0573 76.5474 -82.3125 76.1729C-77.2571 75.7985 -72.3889 75.0494 -67.3334 75.0494C-58.346 74.8622 -49.3585 75.0494 -40.371 75.0494C-37.1879 75.0494 -33.8177 75.2367 -30.8219 74.3006C-17.9024 69.8068 -4.6084 70.7429 8.31108 73.7387C16.3624 75.6111 21.6049 81.4156 21.7922 90.0285C21.9794 99.016 25.5369 99.3905 32.2775 95.2712C57.5547 80.1049 84.7045 70.5557 114.101 66.9982C146.868 62.8789 178.511 65.8748 209.218 78.607L209.406 78.7942C209.967 80.8538 212.027 80.1049 213.15 81.0411C222.325 85.9093 231.5 90.5903 240.674 95.6457C253.032 102.386 264.079 110.999 274.752 119.987C276.062 120.548 276.999 121.297 277.935 122.234H277.748C281.68 125.042 285.237 128.225 288.982 131.408C319.315 161.741 335.604 199.002 342.907 240.756C347.4 266.969 346.464 292.995 339.724 318.647C337.477 321.456 337.477 325.2 335.792 328.384C334.481 331.379 332.796 334.188 331.86 337.184C320.813 369.389 303.025 397.288 278.309 420.692C275.875 422.939 273.816 425.373 271.569 427.62C263.518 437.918 252.845 444.846 241.798 451.399C210.903 469.749 177.013 478.362 141.251 479.298C101.369 480.234 61.674 479.485 21.7922 479.485C15.6133 479.485 9.62171 478.362 3.8173 476.49C-0.11471 476.302 -4.04682 475.928 -7.97883 475.928C-29.5113 475.928 -51.0437 475.928 -72.5762 475.928C-75.0103 475.928 -77.6317 476.115 -80.0658 475.928C-89.9894 475.179 -95.981 469.936 -97.1044 458.702C-97.2917 456.268 -97.1044 453.646 -97.1044 451.212C-97.1044 440.54 -97.1044 429.68 -97.1044 419.007C-97.1044 416.573 -97.4788 413.952 -97.666 411.518C-101.224 406.088 -100.849 399.909 -100.849 393.917C-100.849 331.005 -100.849 267.905 -100.849 204.993C-100.849 199.751 -100.288 194.133 -102.722 189.265C-104.407 187.018 -105.717 184.397 -108.339 186.457Z" fill="#233878"/>
<path d="M209.031 78.2324C207.345 78.2324 205.473 78.6069 203.788 78.2324C194.801 75.9855 185.813 73.7386 176.826 71.3045C174.392 70.5556 171.957 70.1812 169.523 70.1812C167.464 70.1812 165.029 70.3684 163.157 69.6195C158.663 67.9343 153.982 68.1215 149.301 68.1215C143.497 68.1215 137.88 68.1215 132.075 68.1215C126.646 68.1215 121.216 67.747 116.16 69.8067C115.224 70.1811 114.101 70.1812 112.977 70.1812C102.117 70.7429 91.8191 73.3641 81.521 76.5472C72.908 79.1685 64.4822 81.9771 56.431 85.9091C51.1883 88.3432 45.9457 90.4029 41.0775 93.586C36.5837 96.5818 31.341 98.2669 27.2218 101.637C26.4728 102.386 25.3494 102.573 24.4132 103.135C21.4174 104.82 19.3578 103.697 19.3578 100.514C19.1706 96.5818 19.1704 92.6497 19.1704 88.7177C19.1704 85.7219 17.8599 83.2878 15.8002 81.041C11.681 76.5472 6.06373 75.0493 0.25933 74.6748C-6.10679 74.3003 -12.66 74.6749 -19.0261 74.4876C-22.9581 74.4876 -26.8903 74.1131 -30.8223 74.1131C-30.4478 73.1769 -30.2606 72.0535 -29.6989 71.1173C-22.771 60.2575 -15.8431 49.2104 -8.728 38.5377C1.94462 22.6224 16.5491 11.2009 34.8985 5.02207C59.2396 -3.21644 82.8317 -1.3441 105.675 10.8264C108.483 12.3243 111.292 14.1967 113.913 15.8819C144.059 35.3547 174.204 54.6403 204.35 74.1131C206.035 75.2366 207.907 76.1728 209.031 78.2324Z" fill="#025D92"/>
<path d="M243.109 447.467C243.858 446.718 244.607 445.969 245.356 445.407C252.845 440.727 259.96 435.484 266.888 430.054C268.199 428.931 269.884 427.994 271.195 427.058C270.446 428.743 269.884 430.428 268.761 431.926C251.909 458.14 235.058 484.54 218.206 510.754C206.41 528.916 190.121 541.087 169.15 547.265C144.996 554.381 122.34 551.197 100.62 538.84C95.9392 536.218 91.4456 533.035 86.9519 530.227C66.3556 516.933 45.9465 503.826 25.3503 490.532C23.6651 489.409 21.4184 488.66 20.2949 486.6C24.4142 482.481 29.6568 483.417 34.525 483.417C62.4236 483.23 90.5093 483.604 118.408 483.23C157.728 482.668 195.176 474.991 230.002 455.706C234.871 453.272 239.177 450.65 243.109 447.467Z" fill="#F28E00"/>
<path d="M243.108 447.468C242.359 450.089 240.486 451.774 238.427 453.085C232.997 456.455 227.38 459.638 221.762 462.634C206.034 471.434 188.996 476.49 171.582 481.171C169.897 481.545 168.025 481.92 166.34 482.107C164.842 482.294 163.344 481.92 162.033 482.481C156.229 484.728 150.05 484.167 144.058 484.354C141.624 484.354 139.003 484.354 136.569 485.103C132.45 486.601 128.143 486.413 123.836 486.413C93.5037 486.413 62.9839 486.413 32.6512 486.413C28.7192 486.413 24.7871 486.413 20.8551 486.601C14.489 483.979 9.05909 480.047 3.81641 475.928C7.74842 475.741 11.6805 475.366 15.6125 475.366C56.4306 475.366 97.4359 475.366 138.254 475.366C172.893 475.366 205.66 467.128 236.367 450.651C238.427 449.34 240.486 447.468 243.108 447.468Z" fill="#DE7210"/>
<path d="M138.815 80.8529C247.413 81.0401 329.237 169.23 329.611 271.462C329.986 372.196 249.286 462.071 139.377 462.446C35.6465 462.82 -51.6069 378.75 -51.4196 272.024C-51.2324 163.051 36.957 80.6656 138.815 80.8529Z" fill="white"/>
<path d="M-82.5022 460.761C-83.0639 459.825 -84.0002 459.076 -84.0002 458.14C-84.1874 454.582 -84.1874 451.025 -84.1874 447.467C-84.1874 356.656 -84.1874 265.846 -84.1874 175.035C-84.1874 162.115 -84.1873 161.741 -85.498 161.741C-89.9917 161.928 -93.3621 164.924 -97.1069 166.609C-105.907 170.728 -114.52 175.222 -123.133 179.528C-125.006 180.465 -127.065 181.214 -129.125 181.963C-131.372 182.712 -133.806 181.401 -133.993 179.154C-134.18 177.282 -134.367 175.596 -134.367 173.724C-134.367 157.247 -134.18 140.77 -134.555 124.106C-134.742 116.991 -131.559 112.684 -125.567 109.688C-118.452 106.318 -111.337 102.761 -104.409 99.2031C-99.5411 96.769 -94.6727 94.522 -89.9918 91.9007C-84.7491 89.0921 -79.3193 87.5943 -73.5149 87.407C-71.0808 87.407 -68.4594 87.2197 -66.0253 87.2197C-45.2418 87.2197 -24.4583 87.2197 -3.48753 87.2197C-1.61514 87.2197 0.0700573 87.2198 1.94245 87.407C5.49998 87.5943 7.74676 90.0283 7.934 93.7731C8.12123 96.2072 8.12123 98.8285 7.934 101.263C7.934 105.944 7.74685 110.625 7.55961 115.306C5.31274 119.612 1.19354 122.046 -1.98952 125.229C-24.6454 147.511 -41.3098 173.537 -52.1696 203.308C-53.293 206.304 -54.6038 209.299 -55.7272 212.295C-79.3193 283.259 -71.4552 349.354 -24.271 409.083C-10.4153 426.496 6.62351 439.978 24.9729 451.961C27.9687 453.833 31.5261 455.144 32.275 458.702C32.275 460.012 31.7134 460.574 30.9645 460.761C-7.23226 461.51 -44.8672 462.259 -82.5022 460.761Z" fill="white"/>
<path d="M-82.5 460.761C-78.568 460.761 -74.6361 460.574 -70.7041 460.574C-39.4352 460.574 -8.16616 460.574 23.1027 460.574C25.1623 460.574 27.409 460.386 29.4687 460.199C30.2176 460.199 30.2178 459.825 29.6561 459.076C29.0944 458.701 28.7198 457.952 28.1581 457.765C17.2982 452.148 7.37453 445.033 -1.61293 436.794C-7.2301 433.424 -11.5365 428.556 -16.2174 424.062C-18.4643 421.815 -20.8985 419.568 -22.3964 416.573C-23.1453 415.262 -24.0816 414.326 -25.0178 413.202C-35.1287 402.342 -42.6181 389.797 -49.7332 376.878C-57.0355 363.584 -61.7166 349.167 -66.0231 334.749C-67.521 330.068 -68.2699 325.013 -69.0189 320.145C-69.5806 316.587 -69.7679 313.029 -70.8913 309.659C-71.453 307.599 -71.4529 305.353 -71.4529 303.293C-71.4529 292.433 -71.4529 281.761 -71.4529 270.901C-71.4529 267.718 -71.453 264.535 -70.1423 261.352C-69.5806 260.041 -69.5805 258.543 -69.3933 257.045C-68.4571 243.002 -63.9633 229.708 -59.2823 216.602C-58.7206 214.916 -57.7846 213.231 -55.9122 212.669C-56.2867 215.104 -56.4739 217.725 -57.0356 219.972C-58.5335 226.151 -59.8441 232.517 -60.9675 238.883C-64.3378 258.168 -64.525 277.454 -62.0909 296.74C-57.9717 331.192 -45.8012 362.648 -25.205 390.734C-4.23423 419.381 22.1664 441.475 54.3715 456.454C56.9929 457.578 59.4269 459.076 62.0483 460.386C62.2355 460.574 62.4229 460.948 62.4229 461.135C62.6101 462.072 62.2355 462.259 61.1121 462.259C49.316 462.259 37.52 462.633 25.5367 462.633C-6.66838 462.633 -39.0606 462.633 -71.2657 462.633C-74.0743 462.633 -77.07 462.446 -79.8786 462.446C-81.3765 462.446 -81.9383 461.697 -82.5 460.761Z" fill="#D5D3D4"/>
<path d="M33.7735 271.838C33.2117 252.365 37.7054 234.015 47.0674 216.976C62.4209 189.078 85.6387 171.103 116.72 163.801C126.831 161.367 137.317 160.805 147.802 161.554C198.544 165.486 235.43 203.683 243.855 249.182C248.911 276.144 245.728 302.17 232.059 326.324C215.77 355.159 191.241 373.321 158.474 378.938C119.342 385.679 86.0131 374.07 59.7997 344.112C43.3227 325.388 35.0841 303.106 33.9606 278.204C33.5862 276.144 33.7735 274.084 33.7735 271.838Z" fill="#233979"/>
<path d="M208.844 336.434C208.283 337.37 207.908 338.306 207.159 339.055C189.371 357.592 167.839 367.141 142.187 367.89C118.595 368.639 97.6245 361.524 79.6496 346.17C59.9895 329.319 49.1297 307.599 46.6956 281.76C45.3849 266.969 46.5084 252.364 51.3766 238.321C57.3682 221.095 66.9174 206.116 81.522 194.694C82.6454 193.758 83.9561 193.196 85.2668 192.635C111.855 177.656 139.379 177.094 167.09 188.141C193.116 198.626 210.342 218.286 219.892 244.5C221.015 247.496 221.951 250.679 219.517 253.675C216.896 255.36 214.087 254.611 211.466 253.862C203.04 251.615 196.299 254.049 190.869 260.602C189.184 261.913 187.499 262.849 185.252 262.662C182.444 261.726 180.571 259.479 178.324 257.794C167.652 250.304 157.541 251.428 148.366 260.602C146.119 262.849 144.622 266.032 141.251 266.969C140.128 266.781 139.379 266.22 138.817 265.471C138.255 264.534 138.068 263.411 137.694 262.475C136.945 259.853 137.694 255.734 133.949 255.734C129.455 255.734 130.391 260.228 129.83 263.037C129.268 265.658 129.642 269.403 126.272 270.152C122.527 271.088 120.842 267.53 118.783 265.096C115.412 261.351 114.102 253.3 107.735 255.547C101.182 257.794 104.74 265.471 103.991 270.713C103.242 276.892 105.114 283.446 101.931 289.624C95.7522 292.995 94.6287 287.565 92.9435 284.007C89.386 276.705 87.3265 268.466 83.9562 260.977C82.6455 257.981 81.5221 254.798 77.4028 254.798C73.4708 254.798 72.1601 257.981 70.8495 260.79C67.1047 268.841 64.4832 277.454 61.3001 285.88C60.5512 287.752 59.6151 290.186 61.6747 291.684C63.3599 292.807 65.045 291.684 66.5429 290.748C73.8452 285.692 81.1475 285.505 88.2625 290.935C92.1946 293.931 96.501 292.62 100.62 292.62C107.923 293.744 108.859 289.437 109.046 283.633C109.233 279.888 108.484 274.833 113.727 274.084C117.846 273.335 119.532 277.641 121.591 280.45C122.527 281.573 123.089 282.884 123.838 284.194C126.085 287.752 127.957 292.807 133.013 292.246C139.004 291.684 136.008 284.943 138.63 281.76C139.192 280.824 140.128 280.45 141.064 280.263C142.936 280.637 144.247 281.76 145.37 283.071C158.103 295.803 165.405 296.552 179.635 286.816C180.571 286.441 181.695 286.067 182.631 286.067C184.691 286.067 186.75 286.816 188.622 287.752C193.303 290.373 197.984 292.995 203.602 293.182C209.219 293.556 214.462 292.62 217.27 287.003C220.079 281.386 218.206 276.705 213.713 272.586C212.402 271.462 211.091 270.152 210.342 268.466C209.593 265.283 212.027 263.411 213.713 261.351C215.959 259.292 218.206 257.419 221.389 258.917C226.257 263.037 226.445 268.841 226.632 274.645C227.943 297.676 221.389 317.898 208.844 336.434Z" fill="#FBBE00"/>
<path d="M217.645 253.488C218.019 252.552 218.956 251.616 218.768 250.679C218.207 248.245 217.645 245.811 216.521 243.564C212.777 235.513 209.032 227.275 203.602 220.159C200.793 216.415 197.236 213.419 194.24 209.861C188.061 202.746 179.823 198.253 171.959 193.197C169.337 191.512 166.154 190.763 162.971 189.64C147.43 184.21 147.43 184.21 131.702 184.21C128.519 184.21 125.336 184.397 121.966 184.21C113.166 184.022 104.927 185.708 97.0631 189.078C93.1311 190.763 89.3863 192.823 84.8926 192.448C85.2671 191.886 85.6414 191.137 86.2032 190.763C95.5651 183.835 105.863 178.967 117.285 176.346C140.502 170.916 162.971 173.724 183.942 185.146C207.159 197.878 222.139 217.538 229.254 242.815C237.492 272.586 233.747 301.047 216.521 327.26C214.274 330.443 212.402 334.001 208.845 336.06C208.845 334.188 209.032 332.503 209.968 331.005C216.334 320.894 220.079 309.847 221.764 298.051C224.385 290.749 223.449 283.259 223.824 275.769C224.011 269.965 222.887 264.348 220.079 259.292C217.645 258.169 215.772 256.484 217.645 253.488Z" fill="#F18E00"/>
<path d="M139.94 281.573C139.753 285.131 139.753 288.689 139.566 292.246C139.378 294.68 138.068 295.991 135.446 295.991C133.574 295.991 131.889 295.991 130.016 295.804C128.518 295.804 127.208 294.867 126.459 293.744C124.586 290.748 122.527 287.752 120.654 284.757C119.157 282.322 117.659 279.888 116.161 277.454C115.412 276.144 114.288 275.582 113.726 276.144C113.352 276.705 112.79 277.267 112.79 277.829C112.603 281.761 112.79 285.693 112.603 289.625C112.603 291.123 112.416 292.433 112.042 293.744C111.667 294.68 111.105 295.616 109.795 295.616C107.36 295.616 104.739 295.616 102.305 295.616C101.743 295.616 101.182 294.868 100.807 294.306C99.4965 292.621 99.6836 290.748 100.62 288.876C100.433 287.565 100.058 286.067 100.058 284.757C100.058 275.395 100.058 266.22 100.058 256.858C100.058 255.36 100.245 254.049 100.62 252.551C100.807 251.99 101.369 251.428 102.118 251.054C102.679 250.679 103.428 250.679 104.177 250.679C114.101 250.679 112.79 249.743 117.846 257.794C119.906 261.165 121.965 264.535 124.025 267.718C124.399 268.28 125.148 268.467 125.71 268.654C126.646 268.841 126.833 268.28 126.833 267.343C126.833 263.411 126.833 259.479 127.021 255.547C127.021 254.424 127.208 253.3 127.395 252.364C127.582 251.803 128.331 251.054 128.893 251.054C131.702 250.866 134.51 250.866 137.319 251.054C138.068 251.054 139.378 252.364 139.378 252.926C139.753 257.232 139.753 261.539 139.94 265.658C142.561 268.654 142.749 272.399 142.374 276.144C142 278.578 141.063 280.076 139.94 281.573Z" fill="#253978"/>
<path d="M141.625 266.22C142.562 264.348 143.31 262.288 144.434 260.416C153.234 247.309 171.584 247.122 180.758 257.233C182.256 258.731 183.567 260.416 184.877 262.101C186.001 263.225 186.75 264.535 186.937 266.22C187.499 270.152 187.312 274.084 186.937 278.204C186.75 279.14 186.563 280.076 186.375 280.825C186.001 282.136 185.252 283.259 184.69 284.382C184.316 285.131 183.754 285.693 183.192 286.442C182.069 287.004 181.133 287.566 180.758 288.876C174.579 299.174 155.481 300.298 146.119 288.876C144.247 286.629 142.936 284.008 141.438 281.761C140.315 280.263 140.502 278.391 140.502 276.706C141.251 273.148 139.94 269.591 141.625 266.22Z" fill="#263978"/>
<path d="M100.619 289.25C100.619 291.123 100.62 292.808 100.807 294.68C96.8748 297.114 92.3809 296.178 88.2616 295.803C87.5127 295.803 86.3893 294.68 86.0149 293.744C84.8914 290.935 83.0191 289.999 80.2105 289.999C77.9636 289.999 75.904 289.999 73.6571 289.999C71.223 289.999 69.5377 290.935 68.7888 293.369C68.0398 295.242 66.542 296.178 64.6696 296.178C62.61 296.178 60.3631 296.178 58.3034 296.178C56.9928 296.178 55.6822 294.493 55.8695 293.182C55.8695 292.808 55.8694 292.433 56.0566 292.059C60.7376 279.701 65.6058 267.343 70.2868 254.798C71.4102 251.99 73.0953 250.866 75.9039 251.053C77.7763 251.053 79.4615 251.053 81.3339 251.241C82.4573 251.428 83.3934 251.802 83.7679 252.926C85.0785 256.296 86.5766 259.479 87.8872 262.849C91.0703 271.275 94.2533 279.701 97.4364 288.127C97.8109 290.186 99.3087 289.625 100.619 289.25Z" fill="#273A78"/>
<path d="M188.997 259.854C188.997 261.352 189.184 262.663 189.184 264.161C189.184 269.403 191.805 272.961 196.299 275.395C198.546 276.518 200.793 277.455 203.227 278.391C204.537 278.953 205.848 279.702 206.971 280.451C207.346 280.825 207.721 281.761 207.533 282.323C207.533 282.885 206.784 283.634 206.222 283.821C203.788 284.757 201.354 284.195 198.92 283.072C197.984 282.697 197.048 282.136 196.112 281.574C194.988 281.012 193.865 281.199 193.116 281.761C191.243 283.259 189.184 284.944 187.686 286.817C187.124 287.566 187.499 288.876 187.311 290C185.814 289.251 184.503 288.689 183.005 287.94C182.443 287.566 182.256 287.004 182.443 286.629C182.63 286.068 182.818 285.88 183.005 285.88C184.128 284.57 183.754 282.697 185.252 281.574C186.937 276.144 186.562 270.901 185.439 265.471C185.439 264.348 185.252 263.225 185.252 262.101C186.375 261.352 187.686 260.603 188.997 259.854Z" fill="#E9B117"/>
<path d="M141.627 266.22C141.627 269.965 141.44 273.71 141.44 277.267C140.878 277.267 140.504 277.267 139.942 277.267C139.568 273.522 139.006 269.965 139.942 266.22C140.504 266.22 141.066 266.22 141.627 266.22Z" fill="#8A6D69"/>
<path d="M139.941 277.267C140.503 277.267 140.878 277.267 141.439 277.267C141.627 278.765 141.627 280.076 141.814 281.574H140.878H139.941C139.941 280.076 139.941 278.765 139.941 277.267Z" fill="#A98951"/>
<path d="M183.005 285.88C183.005 286.629 183.005 287.191 183.193 287.94C182.631 288.314 181.882 288.502 181.133 288.689C181.133 287.378 181.695 286.442 183.005 285.88Z" fill="#2B3B78"/>
<path d="M163.719 262.849C168.025 262.662 172.519 266.219 173.83 270.9C175.515 276.892 170.459 285.13 162.408 283.82C159.787 283.445 157.727 281.947 156.229 279.888C153.608 276.33 153.608 272.398 155.293 268.653C156.791 265.096 159.974 263.223 163.719 262.849Z" fill="#F1B700"/>
<path d="M185.252 265.471C185.626 266.033 186.375 266.595 186.562 267.157C187.686 271.463 187.686 275.582 186.375 279.889C186.188 280.451 185.626 281.012 185.065 281.574C185.252 276.144 185.252 270.901 185.252 265.471Z" fill="#2B3B78"/>
<path d="M185.063 281.573C185.063 283.446 184.689 284.944 182.816 285.88C182.816 284.007 183.191 282.322 185.063 281.573Z" fill="#2B3B78"/>
<path d="M79.6483 277.267C79.6483 278.203 77.9632 279.139 76.4653 278.952C75.5291 278.765 74.4057 277.641 74.5929 276.892C74.9674 275.207 75.3418 273.522 75.7163 271.837C75.9035 270.901 76.4653 270.526 77.4015 270.901C77.9632 271.088 78.712 271.462 78.8993 272.024C79.6482 273.709 80.0227 275.394 79.6483 277.267Z" fill="#D59F3C"/>
<rect x="55" y="246" width="164" height="53" fill="#FBBE00"/>
<path d="M87.5722 289.787H72.7884L71.044 295.173C70.7768 295.998 70.0085 296.557 69.1413 296.557H58.8515C57.4646 296.557 56.4988 295.18 56.971 293.876L71.7469 253.078C72.0336 252.287 72.7854 251.759 73.6274 251.759H86.8566C87.6995 251.759 88.4519 252.288 88.7379 253.081L103.457 293.878C103.927 295.182 102.961 296.557 101.575 296.557H91.2192C90.3521 296.557 89.5837 295.998 89.3165 295.173L87.5722 289.787ZM84.1894 279.22L80.1803 266.755L76.1711 279.22H84.1894Z" fill="#233979"/>
<path d="M145.106 294.557C145.106 295.662 144.211 296.557 143.106 296.557H132.281C131.606 296.557 130.977 296.216 130.607 295.651L116.478 274.032V294.557C116.478 295.662 115.583 296.557 114.478 296.557H104.571C103.467 296.557 102.571 295.662 102.571 294.557V253.759C102.571 252.655 103.467 251.759 104.571 251.759H115.386C116.067 251.759 116.701 252.105 117.068 252.678L131.199 274.664V253.759C131.199 252.655 132.095 251.759 133.199 251.759H143.106C144.211 251.759 145.106 252.655 145.106 253.759V294.557Z" fill="#233979"/>
<path d="M167.989 297C163.813 297 159.971 296.009 156.463 294.026C152.997 292.044 150.24 289.302 148.194 285.801C146.148 282.299 145.125 278.355 145.125 273.968C145.125 269.581 146.148 265.637 148.194 262.136C150.24 258.635 152.997 255.914 156.463 253.974C159.971 251.991 163.813 251 167.989 251C172.166 251 175.987 251.991 179.453 253.974C182.919 255.914 185.655 258.635 187.659 262.136C189.706 265.637 190.729 269.581 190.729 273.968C190.729 278.355 189.706 282.299 187.659 285.801C185.655 289.302 182.898 292.044 179.39 294.026C175.924 296.009 172.124 297 167.989 297ZM167.989 283.902C170.746 283.902 172.875 283.017 174.379 281.245C175.882 279.431 176.634 277.005 176.634 273.968C176.634 270.889 175.882 268.464 174.379 266.692C172.875 264.878 170.746 263.971 167.989 263.971C165.191 263.971 163.041 264.878 161.537 266.692C160.034 268.464 159.282 270.889 159.282 273.968C159.282 277.005 160.034 279.431 161.537 281.245C163.041 283.017 165.191 283.902 167.989 283.902Z" fill="#233979"/>
<path d="M208.086 297C202.783 297 198.398 295.756 194.931 293.267C192.022 291.117 190.243 288.129 189.594 284.304C189.402 283.168 190.328 282.194 191.48 282.194H202.296C203.337 282.194 204.144 283.02 204.509 283.996C205.024 285.368 206.028 286.054 207.523 286.054C208.274 286.054 208.901 285.885 209.402 285.547C209.945 285.168 210.216 284.598 210.216 283.839C210.216 282.785 209.652 281.941 208.525 281.308C207.397 280.633 205.643 279.874 203.263 279.03C200.423 278.018 198.063 277.027 196.184 276.056C194.347 275.086 192.76 273.673 191.423 271.817C190.087 269.961 189.44 267.578 189.481 264.667C189.481 261.757 190.212 259.289 191.674 257.264C193.177 255.197 195.203 253.636 197.75 252.582C200.339 251.527 203.242 251 206.458 251C211.887 251 216.188 252.265 219.362 254.796C222.079 256.935 223.708 259.811 224.249 263.425C224.416 264.546 223.495 265.49 222.362 265.49H211.4C210.321 265.49 209.531 264.589 209.097 263.601C208.95 263.266 208.759 262.989 208.525 262.769C207.94 262.221 207.23 261.946 206.395 261.946C205.81 261.946 205.33 262.157 204.954 262.579C204.578 262.959 204.39 263.507 204.39 264.224C204.39 265.237 204.933 266.08 206.019 266.755C207.147 267.388 208.922 268.168 211.344 269.096C214.142 270.151 216.439 271.163 218.235 272.133C220.072 273.104 221.659 274.453 222.995 276.183C224.332 277.912 225 280.085 225 282.7C225 285.442 224.332 287.91 222.995 290.103C221.659 292.254 219.717 293.942 217.17 295.165C214.622 296.388 211.594 297 208.086 297Z" fill="#233979"/>
</svg>
