<svg width="370" height="524" viewBox="0 0 370 524" fill="none" xmlns="http://www.w3.org/2000/svg">
<path d="M62.6612 159.457C57.4185 161.891 52.176 164.138 47.1205 166.759C37.7586 171.627 25.9625 166.197 24.0901 153.839C23.7156 151.78 23.7157 149.533 23.7157 147.473C23.7157 130.622 23.7157 113.77 23.7157 96.9188C23.7157 96.1699 23.7157 95.4209 23.7157 94.8591C23.5285 86.6206 27.2731 80.4418 33.6392 75.5736C35.6988 74.0757 37.7585 72.765 40.0054 71.6416C52.7376 65.0882 65.6571 58.722 78.3893 52.3559C81.5724 50.6708 84.9427 49.5474 88.6875 49.1729C93.7429 48.7985 98.6111 48.0494 103.667 48.0494C112.654 47.8622 121.642 48.0494 130.629 48.0494C133.812 48.0494 137.182 48.2367 140.178 47.3006C153.098 42.8068 166.392 43.7429 179.311 46.7387C187.362 48.6111 192.605 54.4156 192.792 63.0285C192.979 72.016 196.537 72.3905 203.278 68.2712C228.555 53.1049 255.705 43.5557 285.101 39.9982C317.868 35.8789 349.511 38.8748 380.218 51.607L380.406 51.7942C380.967 53.8538 383.027 53.1049 384.15 54.0411C393.325 58.9093 402.5 63.5903 411.674 68.6457C424.032 75.3863 435.079 83.9993 445.752 92.9868C447.062 93.5485 447.999 94.2974 448.935 95.2336H448.748C452.68 98.0422 456.237 101.225 459.982 104.408C490.315 134.741 506.604 172.002 513.907 213.756C518.4 239.969 517.464 265.995 510.724 291.647C508.477 294.456 508.477 298.2 506.792 301.384C505.481 304.379 503.796 307.188 502.86 310.184C491.813 342.389 474.025 370.288 449.309 393.692C446.875 395.939 444.816 398.373 442.569 400.62C434.518 410.918 423.845 417.846 412.798 424.399C381.903 442.749 348.013 451.362 312.251 452.298C272.369 453.234 232.674 452.485 192.792 452.485C186.613 452.485 180.622 451.362 174.817 449.49C170.885 449.302 166.953 448.928 163.021 448.928C141.489 448.928 119.956 448.928 98.4238 448.928C95.9897 448.928 93.3683 449.115 90.9342 448.928C81.0106 448.179 75.019 442.936 73.8956 431.702C73.7083 429.268 73.8956 426.646 73.8956 424.212C73.8956 413.54 73.8956 402.68 73.8956 392.007C73.8956 389.573 73.5212 386.952 73.334 384.518C69.7764 379.088 70.1508 372.909 70.1508 366.917C70.1508 304.005 70.1508 240.905 70.1508 177.993C70.1508 172.751 70.7125 167.133 68.2784 162.265C66.5932 160.018 65.2826 157.397 62.6612 159.457Z" fill="#233878"/>
<path d="M380.031 51.2324C378.345 51.2324 376.473 51.6069 374.788 51.2324C365.801 48.9855 356.813 46.7386 347.826 44.3045C345.392 43.5556 342.957 43.1812 340.523 43.1812C338.464 43.1812 336.029 43.3684 334.157 42.6195C329.663 40.9343 324.982 41.1215 320.301 41.1215C314.497 41.1215 308.88 41.1215 303.075 41.1215C297.646 41.1215 292.216 40.747 287.16 42.8066C286.224 43.1811 285.101 43.1812 283.977 43.1812C273.117 43.7429 262.819 46.3641 252.521 49.5472C243.908 52.1685 235.482 54.9771 227.431 58.9091C222.188 61.3432 216.946 63.4029 212.077 66.586C207.584 69.5818 202.341 71.267 198.222 74.6372C197.473 75.3862 196.349 75.5734 195.413 76.1351C192.417 77.8203 190.358 76.6969 190.358 73.5139C190.171 69.5818 190.17 65.6497 190.17 61.7177C190.17 58.7219 188.86 56.2878 186.8 54.041C182.681 49.5472 177.064 48.0493 171.259 47.6748C164.893 47.3003 158.34 47.6749 151.974 47.4876C148.042 47.4876 144.11 47.1131 140.178 47.1131C140.552 46.1769 140.739 45.0535 141.301 44.1173C148.229 33.2575 155.157 22.2104 162.272 11.5377C172.945 -4.37755 187.549 -15.7991 205.899 -21.9779C230.24 -30.2164 253.832 -28.3441 276.675 -16.1736C279.483 -14.6757 282.292 -12.8033 284.913 -11.1181C315.059 8.35473 345.204 27.6403 375.35 47.1131C377.035 48.2366 378.907 49.1728 380.031 51.2324Z" fill="#025D92"/>
<path d="M414.109 420.467C414.858 419.718 415.607 418.969 416.356 418.407C423.845 413.727 430.96 408.484 437.888 403.054C439.199 401.931 440.884 400.994 442.195 400.058C441.446 401.743 440.884 403.428 439.761 404.926C422.909 431.14 406.058 457.54 389.206 483.754C377.41 501.916 361.121 514.087 340.15 520.265C315.996 527.381 293.34 524.197 271.62 511.84C266.939 509.218 262.446 506.035 257.952 503.227C237.356 489.933 216.947 476.826 196.35 463.532C194.665 462.409 192.418 461.66 191.295 459.6C195.414 455.481 200.657 456.417 205.525 456.417C233.424 456.23 261.509 456.604 289.408 456.23C328.728 455.668 366.176 447.991 401.002 428.706C405.871 426.272 410.177 423.65 414.109 420.467Z" fill="#F28E00"/>
<path d="M60.7888 375.343C50.8652 370.287 41.5032 364.296 32.8902 357.368C7.98745 336.959 -2.49779 310.184 0.498031 278.353C1.62146 267.681 4.99167 257.383 10.2344 247.833C11.7323 245.025 13.4174 242.216 15.1025 239.595C29.1454 217.501 43.3757 195.594 57.6059 173.499C58.7293 171.627 60.04 169.942 61.3506 168.257C65.8444 170.316 65.8444 174.623 65.8444 178.368C66.2189 240.531 66.2189 302.694 65.8444 364.858C65.8444 368.79 66.5932 373.845 60.7888 375.343Z" fill="#D41217"/>
<path d="M60.7871 375.343C61.9105 374.219 62.4723 373.096 62.6595 371.598C62.6595 369.164 62.8467 366.543 62.8467 364.109C62.8467 302.32 62.8467 240.531 62.8467 178.929C62.8467 175.372 63.5957 171.627 61.5361 168.444C62.8468 165.635 64.3446 162.827 65.6553 160.018C64.9063 158.146 66.7787 158.333 67.5277 157.584C68.4639 157.022 69.4 156.274 70.3362 155.899C71.8342 155.15 73.5194 156.086 73.7066 157.397C73.8939 159.457 73.8938 161.703 73.8938 163.763C73.8938 234.352 73.8938 304.754 73.8938 375.343C73.8938 378.151 73.5195 380.96 73.3322 383.956C68.6513 381.335 64.5319 378.9 60.7871 375.343Z" fill="#B62424"/>
<path d="M414.108 420.468C413.359 423.089 411.486 424.774 409.427 426.085C403.997 429.455 398.38 432.638 392.762 435.634C377.034 444.434 359.996 449.49 342.582 454.171C340.897 454.545 339.025 454.92 337.34 455.107C335.842 455.294 334.344 454.92 333.033 455.481C327.229 457.728 321.05 457.167 315.058 457.354C312.624 457.354 310.003 457.354 307.569 458.103C303.45 459.601 299.143 459.413 294.836 459.413C264.504 459.413 233.984 459.413 203.651 459.413C199.719 459.413 195.787 459.413 191.855 459.601C185.489 456.979 180.059 453.047 174.816 448.928C178.748 448.741 182.681 448.366 186.613 448.366C227.431 448.366 268.436 448.366 309.254 448.366C343.893 448.366 376.66 440.128 407.367 423.651C409.427 422.34 411.486 420.468 414.108 420.468Z" fill="#DE7210"/>
<path d="M309.815 53.8529C418.413 54.0401 500.237 142.23 500.611 244.462C500.986 345.196 420.286 435.071 310.377 435.446C206.646 435.82 119.393 351.75 119.58 245.024C119.768 136.051 207.957 53.6656 309.815 53.8529Z" fill="white"/>
<path d="M88.4978 433.761C87.9361 432.825 86.9998 432.076 86.9998 431.14C86.8125 427.582 86.8126 424.025 86.8126 420.467C86.8126 329.656 86.8126 238.846 86.8126 148.035C86.8126 135.115 86.8127 134.741 85.502 134.741C81.0083 134.928 77.6379 137.924 73.8931 139.609C65.0929 143.728 56.4798 148.222 47.8668 152.528C45.9944 153.465 43.9349 154.214 41.8753 154.963C39.6284 155.712 37.1944 154.401 37.0071 152.154C36.8199 150.282 36.6325 148.596 36.6325 146.724C36.6325 130.247 36.8198 113.77 36.4453 97.1058C36.2581 89.9907 39.4412 85.6842 45.4329 82.6884C52.5479 79.3181 59.6629 75.7606 66.5907 72.2031C71.4589 69.769 76.3273 67.522 81.0082 64.9007C86.2509 62.0921 91.6807 60.5943 97.4851 60.407C99.9192 60.407 102.541 60.2197 104.975 60.2197C125.758 60.2197 146.542 60.2197 167.512 60.2197C169.385 60.2197 171.07 60.2198 172.942 60.407C176.5 60.5943 178.747 63.0283 178.934 66.7731C179.121 69.2072 179.121 71.8285 178.934 74.2626C178.934 78.9436 178.747 83.6246 178.56 88.3055C176.313 92.612 172.194 95.0461 169.01 98.2292C146.355 120.511 129.69 146.537 118.83 176.308C117.707 179.304 116.396 182.299 115.273 185.295C91.6807 256.259 99.5448 322.354 146.729 382.083C160.585 399.496 177.624 412.978 195.973 424.961C198.969 426.833 202.526 428.144 203.275 431.702C203.275 433.012 202.713 433.574 201.964 433.761C163.768 434.51 126.133 435.259 88.4978 433.761Z" fill="white"/>
<path d="M88.5 433.761C92.432 433.761 96.3639 433.574 100.296 433.574C131.565 433.574 162.834 433.574 194.103 433.574C196.162 433.574 198.409 433.386 200.469 433.199C201.218 433.199 201.218 432.825 200.656 432.076C200.094 431.701 199.72 430.952 199.158 430.765C188.298 425.148 178.375 418.033 169.387 409.794C163.77 406.424 159.464 401.556 154.783 397.062C152.536 394.815 150.102 392.568 148.604 389.573C147.855 388.262 146.918 387.326 145.982 386.202C135.871 375.342 128.382 362.797 121.267 349.878C113.964 336.584 109.283 322.167 104.977 307.749C103.479 303.068 102.73 298.013 101.981 293.145C101.419 289.587 101.232 286.029 100.109 282.659C99.547 280.599 99.5471 278.353 99.5471 276.293C99.5471 265.433 99.5471 254.761 99.5471 243.901C99.5471 240.718 99.547 237.535 100.858 234.352C101.419 233.041 101.419 231.543 101.607 230.045C102.543 216.002 107.037 202.708 111.718 189.602C112.279 187.916 113.215 186.231 115.088 185.669C114.713 188.104 114.526 190.725 113.964 192.972C112.467 199.151 111.156 205.517 110.032 211.883C106.662 231.168 106.475 250.454 108.909 269.74C113.028 304.192 125.199 335.648 145.795 363.734C166.766 392.381 193.166 414.475 225.372 429.454C227.993 430.578 230.427 432.076 233.048 433.386C233.235 433.574 233.423 433.948 233.423 434.135C233.61 435.072 233.235 435.259 232.112 435.259C220.316 435.259 208.52 435.633 196.537 435.633C164.332 435.633 131.939 435.633 99.7343 435.633C96.9257 435.633 93.93 435.446 91.1214 435.446C89.6235 435.446 89.0617 434.697 88.5 433.761Z" fill="#D5D3D4"/>
<path d="M204.773 244.838C204.212 225.365 208.705 207.015 218.067 189.976C233.421 162.078 256.639 144.103 287.72 136.801C297.831 134.367 308.317 133.805 318.802 134.554C369.544 138.486 406.43 176.683 414.855 222.182C419.911 249.144 416.728 275.17 403.059 299.324C386.77 328.159 362.241 346.321 329.474 351.938C290.341 358.679 257.013 347.07 230.8 317.112C214.323 298.388 206.084 276.106 204.961 251.204C204.586 249.144 204.773 247.084 204.773 244.838Z" fill="#233979"/>
<path d="M379.844 309.434C379.283 310.37 378.908 311.306 378.159 312.055C360.371 330.592 338.839 340.141 313.187 340.89C289.595 341.639 268.625 334.524 250.65 319.171C230.99 302.319 220.13 280.599 217.696 254.76C216.385 239.969 217.508 225.364 222.377 211.321C228.368 194.095 237.917 179.116 252.522 167.694C253.645 166.758 254.956 166.196 256.267 165.635C282.855 150.656 310.379 150.094 338.09 161.141C364.116 171.626 381.342 191.286 390.892 217.5C392.015 220.496 392.951 223.679 390.517 226.675C387.896 228.36 385.087 227.611 382.466 226.862C374.04 224.615 367.299 227.049 361.869 233.602C360.184 234.913 358.499 235.849 356.252 235.662C353.444 234.726 351.571 232.479 349.324 230.794C338.652 223.304 328.541 224.428 319.366 233.602C317.119 235.849 315.622 239.032 312.251 239.969C311.128 239.781 310.379 239.22 309.817 238.471C309.255 237.534 309.068 236.411 308.694 235.475C307.945 232.854 308.694 228.734 304.949 228.734C300.455 228.734 301.391 233.228 300.83 236.037C300.268 238.658 300.642 242.403 297.272 243.152C293.527 244.088 291.842 240.53 289.783 238.096C286.412 234.351 285.102 226.3 278.735 228.547C272.182 230.794 275.74 238.471 274.991 243.713C274.242 249.892 276.114 256.446 272.931 262.624C266.752 265.995 265.629 260.565 263.944 257.007C260.386 249.705 258.326 241.466 254.956 233.977C253.646 230.981 252.522 227.798 248.403 227.798C244.471 227.798 243.16 230.981 241.849 233.79C238.105 241.841 235.483 250.454 232.3 258.88C231.551 260.752 230.615 263.186 232.675 264.684C234.36 265.807 236.045 264.684 237.543 263.748C244.845 258.692 252.147 258.505 259.263 263.935C263.195 266.931 267.501 265.62 271.62 265.62C278.923 266.744 279.859 262.437 280.046 256.633C280.233 252.888 279.484 247.833 284.727 247.084C288.846 246.335 290.532 250.641 292.591 253.45C293.527 254.573 294.089 255.884 294.838 257.194C297.085 260.752 298.957 265.807 304.013 265.246C310.004 264.684 307.008 257.943 309.63 254.76C310.192 253.824 311.128 253.45 312.064 253.263C313.936 253.637 315.247 254.76 316.37 256.071C329.103 268.803 336.405 269.552 350.635 259.816C351.571 259.441 352.695 259.067 353.631 259.067C355.691 259.067 357.75 259.816 359.622 260.752C364.303 263.373 368.984 265.995 374.602 266.182C380.219 266.556 385.462 265.62 388.27 260.003C391.079 254.386 389.206 249.705 384.713 245.586C383.402 244.462 382.091 243.152 381.342 241.466C380.593 238.283 383.027 236.411 384.713 234.351C386.959 232.292 389.206 230.419 392.389 231.917C397.257 236.037 397.445 241.841 397.632 247.645C398.943 270.676 392.389 290.898 379.844 309.434Z" fill="#FBBE00"/>
<path d="M388.645 226.488C389.019 225.552 389.956 224.616 389.768 223.679C389.207 221.245 388.645 218.811 387.521 216.564C383.777 208.513 380.032 200.275 374.602 193.159C371.793 189.415 368.236 186.419 365.24 182.861C359.061 175.746 350.823 171.253 342.959 166.197C340.337 164.512 337.154 163.763 333.971 162.64C318.43 157.21 318.43 157.21 302.702 157.21C299.519 157.21 296.336 157.397 292.966 157.21C284.166 157.022 275.927 158.708 268.063 162.078C264.131 163.763 260.386 165.823 255.893 165.448C256.267 164.886 256.641 164.137 257.203 163.763C266.565 156.835 276.863 151.967 288.285 149.346C311.502 143.916 333.971 146.724 354.942 158.146C378.159 170.878 393.139 190.538 400.254 215.815C408.492 245.586 404.747 274.047 387.521 300.26C385.274 303.443 383.402 307.001 379.845 309.06C379.845 307.188 380.032 305.503 380.968 304.005C387.334 293.894 391.079 282.847 392.764 271.051C395.385 263.749 394.449 256.259 394.824 248.769C395.011 242.965 393.887 237.348 391.079 232.292C388.645 231.169 386.772 229.484 388.645 226.488Z" fill="#F18E00"/>
<path d="M310.94 254.573C310.753 258.131 310.753 261.689 310.565 265.246C310.378 267.68 309.068 268.991 306.446 268.991C304.574 268.991 302.889 268.991 301.016 268.804C299.518 268.804 298.208 267.867 297.459 266.744C295.586 263.748 293.527 260.752 291.654 257.757C290.156 255.322 288.659 252.888 287.161 250.454C286.412 249.144 285.288 248.582 284.726 249.144C284.352 249.705 283.79 250.267 283.79 250.829C283.603 254.761 283.79 258.693 283.603 262.625C283.603 264.123 283.416 265.433 283.041 266.744C282.667 267.68 282.105 268.616 280.794 268.616C278.36 268.616 275.739 268.616 273.305 268.616C272.743 268.616 272.182 267.868 271.807 267.306C270.496 265.621 270.684 263.748 271.62 261.876C271.432 260.565 271.058 259.067 271.058 257.757C271.058 248.395 271.058 239.22 271.058 229.858C271.058 228.36 271.245 227.049 271.62 225.551C271.807 224.99 272.369 224.428 273.118 224.054C273.679 223.679 274.428 223.679 275.177 223.679C285.101 223.679 283.79 222.743 288.846 230.794C290.905 234.165 292.965 237.535 295.025 240.718C295.399 241.28 296.148 241.467 296.71 241.654C297.646 241.841 297.833 241.28 297.833 240.343C297.833 236.411 297.833 232.479 298.021 228.547C298.021 227.424 298.208 226.3 298.395 225.364C298.582 224.803 299.331 224.054 299.893 224.054C302.702 223.866 305.51 223.866 308.319 224.054C309.068 224.054 310.378 225.364 310.378 225.926C310.753 230.232 310.753 234.539 310.94 238.658C313.561 241.654 313.749 245.399 313.374 249.144C313 251.578 312.063 253.076 310.94 254.573Z" fill="#253978"/>
<path d="M312.625 239.22C313.562 237.348 314.31 235.288 315.434 233.416C324.234 220.309 342.584 220.122 351.758 230.233C353.256 231.731 354.567 233.416 355.877 235.101C357.001 236.225 357.75 237.535 357.937 239.22C358.499 243.152 358.312 247.084 357.937 251.204C357.75 252.14 357.563 253.076 357.375 253.825C357.001 255.136 356.252 256.259 355.69 257.382C355.316 258.131 354.754 258.693 354.192 259.442C353.069 260.004 352.133 260.566 351.758 261.876C345.579 272.174 326.481 273.298 317.119 261.876C315.247 259.629 313.936 257.008 312.438 254.761C311.315 253.263 311.502 251.391 311.502 249.706C312.251 246.148 310.94 242.591 312.625 239.22Z" fill="#263978"/>
<path d="M271.619 262.25C271.619 264.123 271.62 265.808 271.807 267.68C267.875 270.114 263.381 269.178 259.262 268.803C258.513 268.803 257.389 267.68 257.015 266.744C255.891 263.935 254.019 262.999 251.211 262.999C248.964 262.999 246.904 262.999 244.657 262.999C242.223 262.999 240.538 263.935 239.789 266.369C239.04 268.242 237.542 269.178 235.67 269.178C233.61 269.178 231.363 269.178 229.303 269.178C227.993 269.178 226.682 267.493 226.87 266.182C226.87 265.808 226.869 265.433 227.057 265.059C231.738 252.701 236.606 240.343 241.287 227.798C242.41 224.99 244.095 223.866 246.904 224.053C248.776 224.053 250.462 224.053 252.334 224.241C253.457 224.428 254.393 224.802 254.768 225.926C256.079 229.296 257.577 232.479 258.887 235.849C262.07 244.275 265.253 252.701 268.436 261.127C268.811 263.186 270.309 262.625 271.619 262.25Z" fill="#273A78"/>
<path d="M388.642 226.488C389.953 228.36 391.825 230.046 391.076 232.667C389.391 234.539 387.519 236.224 385.834 238.097C385.646 240.344 378.344 234.352 382.276 241.28C384.149 242.403 386.021 243.527 387.706 244.65C395.944 251.016 393.885 263.561 385.272 267.68C379.468 270.489 373.663 270.302 367.672 268.242C364.301 267.119 361.493 264.685 358.497 262.812C355.501 258.506 358.497 256.072 361.493 254.199C366.174 251.203 370.48 252.514 373.289 254.199C367.672 249.518 353.629 247.271 360.182 232.667C360.556 232.105 360.931 231.356 361.305 230.794C364.676 223.867 370.855 222.556 377.595 222.93C381.34 223.305 384.897 225.177 388.642 226.488Z" fill="#2B3B78"/>
<path d="M359.997 232.854C359.997 234.352 360.184 235.663 360.184 237.161C360.184 242.403 362.805 245.961 367.299 248.395C369.546 249.518 371.793 250.455 374.227 251.391C375.537 251.953 376.848 252.702 377.972 253.451C378.346 253.825 378.721 254.761 378.533 255.323C378.533 255.885 377.784 256.634 377.223 256.821C374.788 257.757 372.354 257.195 369.92 256.072C368.984 255.697 368.048 255.136 367.112 254.574C365.988 254.012 364.865 254.199 364.116 254.761C362.243 256.259 360.184 257.944 358.686 259.817C358.124 260.566 358.499 261.876 358.311 263C356.814 262.251 355.503 261.689 354.005 260.94C353.443 260.566 353.256 260.004 353.443 259.629C353.631 259.068 353.818 258.88 354.005 258.88C355.128 257.57 354.754 255.697 356.252 254.574C357.937 249.144 357.562 243.901 356.439 238.471C356.439 237.348 356.252 236.225 356.252 235.101C357.375 234.352 358.686 233.603 359.997 232.854Z" fill="#E9B117"/>
<path d="M312.627 239.22C312.627 242.965 312.44 246.71 312.44 250.267C311.878 250.267 311.504 250.267 310.942 250.267C310.568 246.522 310.006 242.965 310.942 239.22C311.504 239.22 312.066 239.22 312.627 239.22Z" fill="#8A6D69"/>
<path d="M310.941 250.267C311.503 250.267 311.878 250.267 312.439 250.267C312.627 251.765 312.627 253.076 312.814 254.574H311.878H310.941C310.941 253.076 310.941 251.765 310.941 250.267Z" fill="#A98951"/>
<path d="M354.005 258.88C354.005 259.629 354.005 260.191 354.193 260.94C353.631 261.314 352.882 261.502 352.133 261.689C352.133 260.378 352.695 259.442 354.005 258.88Z" fill="#2B3B78"/>
<path d="M334.719 235.849C339.025 235.662 343.519 239.219 344.83 243.9C346.515 249.892 341.459 258.13 333.408 256.82C330.787 256.445 328.727 254.947 327.229 252.888C324.608 249.33 324.608 245.398 326.293 241.653C327.791 238.096 330.974 236.223 334.719 235.849Z" fill="#F1B700"/>
<path d="M356.252 238.471C356.626 239.033 357.375 239.595 357.562 240.157C358.686 244.463 358.686 248.582 357.375 252.889C357.188 253.451 356.626 254.012 356.065 254.574C356.252 249.144 356.252 243.901 356.252 238.471Z" fill="#2B3B78"/>
<path d="M356.063 254.573C356.063 256.446 355.689 257.944 353.816 258.88C353.816 257.007 354.191 255.322 356.063 254.573Z" fill="#2B3B78"/>
<path d="M250.648 250.267C250.648 251.203 248.963 252.139 247.465 251.952C246.529 251.765 245.406 250.641 245.593 249.892C245.967 248.207 246.342 246.522 246.716 244.837C246.904 243.901 247.465 243.526 248.401 243.901C248.963 244.088 249.712 244.462 249.899 245.024C250.648 246.709 251.023 248.394 250.648 250.267Z" fill="#D59F3C"/>
<path d="M62.6612 159.457C57.4185 161.891 52.176 164.138 47.1205 166.759C37.7586 171.627 25.9625 166.197 24.0901 153.839C23.7156 151.78 23.7157 149.533 23.7157 147.473C23.7157 130.622 23.7157 113.77 23.7157 96.9188C23.7157 96.1699 23.7157 95.4209 23.7157 94.8591C23.5285 86.6206 27.2731 80.4418 33.6392 75.5736C35.6988 74.0757 37.7585 72.765 40.0054 71.6416C52.7376 65.0882 65.6571 58.722 78.3893 52.3559C81.5724 50.6708 84.9427 49.5474 88.6875 49.1729C93.7429 48.7985 98.6111 48.0494 103.667 48.0494C112.654 47.8622 121.642 48.0494 130.629 48.0494C133.812 48.0494 137.182 48.2367 140.178 47.3006C153.098 42.8068 166.392 43.7429 179.311 46.7387C187.362 48.6111 192.605 54.4156 192.792 63.0285C192.979 72.016 196.537 72.3905 203.278 68.2712C228.555 53.1049 255.705 43.5557 285.101 39.9982C317.868 35.8789 349.511 38.8748 380.218 51.607L380.406 51.7942C380.967 53.8538 383.027 53.1049 384.15 54.0411C393.325 58.9093 402.5 63.5903 411.674 68.6457C424.032 75.3863 435.079 83.9993 445.752 92.9868C447.062 93.5485 447.999 94.2974 448.935 95.2336H448.748C452.68 98.0422 456.237 101.225 459.982 104.408C490.315 134.741 506.604 172.002 513.907 213.756C518.4 239.969 517.464 265.995 510.724 291.647C508.477 294.456 508.477 298.2 506.792 301.384C505.481 304.379 503.796 307.188 502.86 310.184C491.813 342.389 474.025 370.288 449.309 393.692C446.875 395.939 444.816 398.373 442.569 400.62C434.518 410.918 423.845 417.846 412.798 424.399C381.903 442.749 348.013 451.362 312.251 452.298C272.369 453.234 232.674 452.485 192.792 452.485C186.613 452.485 180.622 451.362 174.817 449.49C170.885 449.302 166.953 448.928 163.021 448.928C141.489 448.928 119.956 448.928 98.4238 448.928C95.9897 448.928 93.3683 449.115 90.9342 448.928C81.0106 448.179 75.019 442.936 73.8956 431.702C73.7083 429.268 73.8956 426.646 73.8956 424.212C73.8956 413.54 73.8956 402.68 73.8956 392.007C73.8956 389.573 73.5212 386.952 73.334 384.518C69.7764 379.088 70.1508 372.909 70.1508 366.917C70.1508 304.005 70.1508 240.905 70.1508 177.993C70.1508 172.751 70.7125 167.133 68.2784 162.265C66.5932 160.018 65.2826 157.397 62.6612 159.457Z" fill="#233878"/>
<path d="M380.031 51.2324C378.345 51.2324 376.473 51.6069 374.788 51.2324C365.801 48.9855 356.813 46.7386 347.826 44.3045C345.392 43.5556 342.957 43.1812 340.523 43.1812C338.464 43.1812 336.029 43.3684 334.157 42.6195C329.663 40.9343 324.982 41.1215 320.301 41.1215C314.497 41.1215 308.88 41.1215 303.075 41.1215C297.646 41.1215 292.216 40.747 287.16 42.8066C286.224 43.1811 285.101 43.1812 283.977 43.1812C273.117 43.7429 262.819 46.3641 252.521 49.5472C243.908 52.1685 235.482 54.9771 227.431 58.9091C222.188 61.3432 216.946 63.4029 212.077 66.586C207.584 69.5818 202.341 71.267 198.222 74.6372C197.473 75.3862 196.349 75.5734 195.413 76.1351C192.417 77.8203 190.358 76.6969 190.358 73.5139C190.171 69.5818 190.17 65.6497 190.17 61.7177C190.17 58.7219 188.86 56.2878 186.8 54.041C182.681 49.5472 177.064 48.0493 171.259 47.6748C164.893 47.3003 158.34 47.6749 151.974 47.4876C148.042 47.4876 144.11 47.1131 140.178 47.1131C140.552 46.1769 140.739 45.0535 141.301 44.1173C148.229 33.2575 155.157 22.2104 162.272 11.5377C172.945 -4.37755 187.549 -15.7991 205.899 -21.9779C230.24 -30.2164 253.832 -28.3441 276.675 -16.1736C279.483 -14.6757 282.292 -12.8033 284.913 -11.1181C315.059 8.35473 345.204 27.6403 375.35 47.1131C377.035 48.2366 378.907 49.1728 380.031 51.2324Z" fill="#025D92"/>
<path d="M414.109 420.467C414.858 419.718 415.607 418.969 416.356 418.407C423.845 413.727 430.96 408.484 437.888 403.054C439.199 401.931 440.884 400.994 442.195 400.058C441.446 401.743 440.884 403.428 439.761 404.926C422.909 431.14 406.058 457.54 389.206 483.754C377.41 501.916 361.121 514.087 340.15 520.265C315.996 527.381 293.34 524.197 271.62 511.84C266.939 509.218 262.446 506.035 257.952 503.227C237.356 489.933 216.947 476.826 196.35 463.532C194.665 462.409 192.418 461.66 191.295 459.6C195.414 455.481 200.657 456.417 205.525 456.417C233.424 456.23 261.509 456.604 289.408 456.23C328.728 455.668 366.176 447.991 401.002 428.706C405.871 426.272 410.177 423.65 414.109 420.467Z" fill="#F28E00"/>
<path d="M60.7871 375.343C61.9105 374.219 62.4723 373.096 62.6595 371.598C62.6595 369.164 62.8467 366.543 62.8467 364.109C62.8467 302.32 62.8467 240.531 62.8467 178.929C62.8467 175.372 63.5957 171.627 61.5361 168.444C62.8468 165.635 64.3446 162.827 65.6553 160.018C64.9063 158.146 66.7787 158.333 67.5277 157.584C68.4639 157.022 69.4 156.274 70.3362 155.899C71.8342 155.15 73.5194 156.086 73.7066 157.397C73.8939 159.457 73.8938 161.703 73.8938 163.763C73.8938 234.352 73.8938 304.754 73.8938 375.343C73.8938 378.151 73.5195 380.96 73.3322 383.956C68.6513 381.335 64.5319 378.9 60.7871 375.343Z" fill="#B62424"/>
<path d="M414.108 420.468C413.359 423.089 411.486 424.774 409.427 426.085C403.997 429.455 398.38 432.638 392.762 435.634C377.034 444.434 359.996 449.49 342.582 454.171C340.897 454.545 339.025 454.92 337.34 455.107C335.842 455.294 334.344 454.92 333.033 455.481C327.229 457.728 321.05 457.167 315.058 457.354C312.624 457.354 310.003 457.354 307.569 458.103C303.45 459.601 299.143 459.413 294.836 459.413C264.504 459.413 233.984 459.413 203.651 459.413C199.719 459.413 195.787 459.413 191.855 459.601C185.489 456.979 180.059 453.047 174.816 448.928C178.748 448.741 182.681 448.366 186.613 448.366C227.431 448.366 268.436 448.366 309.254 448.366C343.893 448.366 376.66 440.128 407.367 423.651C409.427 422.34 411.486 420.468 414.108 420.468Z" fill="#DE7210"/>
<path d="M309.815 53.8529C418.413 54.0401 500.237 142.23 500.611 244.462C500.986 345.196 420.286 435.071 310.377 435.446C206.646 435.82 119.393 351.75 119.58 245.024C119.768 136.051 207.957 53.6656 309.815 53.8529Z" fill="white"/>
<path d="M88.4978 433.761C87.9361 432.825 86.9998 432.076 86.9998 431.14C86.8125 427.582 86.8126 424.025 86.8126 420.467C86.8126 329.656 86.8126 238.846 86.8126 148.035C86.8126 135.115 86.8127 134.741 85.502 134.741C81.0083 134.928 77.6379 137.924 73.8931 139.609C65.0929 143.728 56.4798 148.222 47.8668 152.528C45.9944 153.465 43.9349 154.214 41.8753 154.963C39.6284 155.712 37.1944 154.401 37.0071 152.154C36.8199 150.282 36.6325 148.596 36.6325 146.724C36.6325 130.247 36.8198 113.77 36.4453 97.1058C36.2581 89.9907 39.4412 85.6842 45.4329 82.6884C52.5479 79.3181 59.6629 75.7606 66.5907 72.2031C71.4589 69.769 76.3273 67.522 81.0082 64.9007C86.2509 62.0921 91.6807 60.5943 97.4851 60.407C99.9192 60.407 102.541 60.2197 104.975 60.2197C125.758 60.2197 146.542 60.2197 167.512 60.2197C169.385 60.2197 171.07 60.2198 172.942 60.407C176.5 60.5943 178.747 63.0283 178.934 66.7731C179.121 69.2072 179.121 71.8285 178.934 74.2626C178.934 78.9436 178.747 83.6246 178.56 88.3055C176.313 92.612 172.194 95.0461 169.01 98.2292C146.355 120.511 129.69 146.537 118.83 176.308C117.707 179.304 116.396 182.299 115.273 185.295C91.6807 256.259 99.5448 322.354 146.729 382.083C160.585 399.496 177.624 412.978 195.973 424.961C198.969 426.833 202.526 428.144 203.275 431.702C203.275 433.012 202.713 433.574 201.964 433.761C163.768 434.51 126.133 435.259 88.4978 433.761Z" fill="white"/>
<path d="M88.5 433.761C92.432 433.761 96.3639 433.574 100.296 433.574C131.565 433.574 162.834 433.574 194.103 433.574C196.162 433.574 198.409 433.386 200.469 433.199C201.218 433.199 201.218 432.825 200.656 432.076C200.094 431.701 199.72 430.952 199.158 430.765C188.298 425.148 178.375 418.033 169.387 409.794C163.77 406.424 159.464 401.556 154.783 397.062C152.536 394.815 150.102 392.568 148.604 389.573C147.855 388.262 146.918 387.326 145.982 386.202C135.871 375.342 128.382 362.797 121.267 349.878C113.964 336.584 109.283 322.167 104.977 307.749C103.479 303.068 102.73 298.013 101.981 293.145C101.419 289.587 101.232 286.029 100.109 282.659C99.547 280.599 99.5471 278.353 99.5471 276.293C99.5471 265.433 99.5471 254.761 99.5471 243.901C99.5471 240.718 99.547 237.535 100.858 234.352C101.419 233.041 101.419 231.543 101.607 230.045C102.543 216.002 107.037 202.708 111.718 189.602C112.279 187.916 113.215 186.231 115.088 185.669C114.713 188.104 114.526 190.725 113.964 192.972C112.467 199.151 111.156 205.517 110.032 211.883C106.662 231.168 106.475 250.454 108.909 269.74C113.028 304.192 125.199 335.648 145.795 363.734C166.766 392.381 193.166 414.475 225.372 429.454C227.993 430.578 230.427 432.076 233.048 433.386C233.235 433.574 233.423 433.948 233.423 434.135C233.61 435.072 233.235 435.259 232.112 435.259C220.316 435.259 208.52 435.633 196.537 435.633C164.332 435.633 131.939 435.633 99.7343 435.633C96.9257 435.633 93.93 435.446 91.1214 435.446C89.6235 435.446 89.0617 434.697 88.5 433.761Z" fill="#D5D3D4"/>
<path d="M204.773 244.838C204.212 225.365 208.705 207.015 218.067 189.976C233.421 162.078 256.639 144.103 287.72 136.801C297.831 134.367 308.317 133.805 318.802 134.554C369.544 138.486 406.43 176.683 414.855 222.182C419.911 249.144 416.728 275.17 403.059 299.324C386.77 328.159 362.241 346.321 329.474 351.938C290.341 358.679 257.013 347.07 230.8 317.112C214.323 298.388 206.084 276.106 204.961 251.204C204.586 249.144 204.773 247.084 204.773 244.838Z" fill="#233979"/>
<path d="M379.844 309.434C379.283 310.37 378.908 311.306 378.159 312.055C360.371 330.592 338.839 340.141 313.187 340.89C289.595 341.639 268.625 334.524 250.65 319.171C230.99 302.319 220.13 280.599 217.696 254.76C216.385 239.969 217.508 225.364 222.377 211.321C228.368 194.095 237.917 179.116 252.522 167.694C253.645 166.758 254.956 166.196 256.267 165.635C282.855 150.656 310.379 150.094 338.09 161.141C364.116 171.626 381.342 191.286 390.892 217.5C392.015 220.496 392.951 223.679 390.517 226.675C387.896 228.36 385.087 227.611 382.466 226.862C374.04 224.615 367.299 227.049 361.869 233.602C360.184 234.913 358.499 235.849 356.252 235.662C353.444 234.726 351.571 232.479 349.324 230.794C338.652 223.304 328.541 224.428 319.366 233.602C317.119 235.849 315.622 239.032 312.251 239.969C311.128 239.781 310.379 239.22 309.817 238.471C309.255 237.534 309.068 236.411 308.694 235.475C307.945 232.854 308.694 228.734 304.949 228.734C300.455 228.734 301.391 233.228 300.83 236.037C300.268 238.658 300.642 242.403 297.272 243.152C293.527 244.088 291.842 240.53 289.783 238.096C286.412 234.351 285.102 226.3 278.735 228.547C272.182 230.794 275.74 238.471 274.991 243.713C274.242 249.892 276.114 256.446 272.931 262.624C266.752 265.995 265.629 260.565 263.944 257.007C260.386 249.705 258.326 241.466 254.956 233.977C253.646 230.981 252.522 227.798 248.403 227.798C244.471 227.798 243.16 230.981 241.849 233.79C238.105 241.841 235.483 250.454 232.3 258.88C231.551 260.752 230.615 263.186 232.675 264.684C234.36 265.807 236.045 264.684 237.543 263.748C244.845 258.692 252.147 258.505 259.263 263.935C263.195 266.931 267.501 265.62 271.62 265.62C278.923 266.744 279.859 262.437 280.046 256.633C280.233 252.888 279.484 247.833 284.727 247.084C288.846 246.335 290.532 250.641 292.591 253.45C293.527 254.573 294.089 255.884 294.838 257.194C297.085 260.752 298.957 265.807 304.013 265.246C310.004 264.684 307.008 257.943 309.63 254.76C310.192 253.824 311.128 253.45 312.064 253.263C313.936 253.637 315.247 254.76 316.37 256.071C329.103 268.803 336.405 269.552 350.635 259.816C351.571 259.441 352.695 259.067 353.631 259.067C355.691 259.067 357.75 259.816 359.622 260.752C364.303 263.373 368.984 265.995 374.602 266.182C380.219 266.556 385.462 265.62 388.27 260.003C391.079 254.386 389.206 249.705 384.713 245.586C383.402 244.462 382.091 243.152 381.342 241.466C380.593 238.283 383.027 236.411 384.713 234.351C386.959 232.292 389.206 230.419 392.389 231.917C397.257 236.037 397.445 241.841 397.632 247.645C398.943 270.676 392.389 290.898 379.844 309.434Z" fill="#FBBE00"/>
<path d="M388.645 226.488C389.019 225.552 389.956 224.616 389.768 223.679C389.207 221.245 388.645 218.811 387.521 216.564C383.777 208.513 380.032 200.275 374.602 193.159C371.793 189.415 368.236 186.419 365.24 182.861C359.061 175.746 350.823 171.253 342.959 166.197C340.337 164.512 337.154 163.763 333.971 162.64C318.43 157.21 318.43 157.21 302.702 157.21C299.519 157.21 296.336 157.397 292.966 157.21C284.166 157.022 275.927 158.708 268.063 162.078C264.131 163.763 260.386 165.823 255.893 165.448C256.267 164.886 256.641 164.137 257.203 163.763C266.565 156.835 276.863 151.967 288.285 149.346C311.502 143.916 333.971 146.724 354.942 158.146C378.159 170.878 393.139 190.538 400.254 215.815C408.492 245.586 404.747 274.047 387.521 300.26C385.274 303.443 383.402 307.001 379.845 309.06C379.845 307.188 380.032 305.503 380.968 304.005C387.334 293.894 391.079 282.847 392.764 271.051C395.385 263.749 394.449 256.259 394.824 248.769C395.011 242.965 393.887 237.348 391.079 232.292C388.645 231.169 386.772 229.484 388.645 226.488Z" fill="#F18E00"/>
<path d="M310.94 254.573C310.753 258.131 310.753 261.689 310.565 265.246C310.378 267.68 309.068 268.991 306.446 268.991C304.574 268.991 302.889 268.991 301.016 268.804C299.518 268.804 298.208 267.867 297.459 266.744C295.586 263.748 293.527 260.752 291.654 257.757C290.156 255.322 288.659 252.888 287.161 250.454C286.412 249.144 285.288 248.582 284.726 249.144C284.352 249.705 283.79 250.267 283.79 250.829C283.603 254.761 283.79 258.693 283.603 262.625C283.603 264.123 283.416 265.433 283.041 266.744C282.667 267.68 282.105 268.616 280.794 268.616C278.36 268.616 275.739 268.616 273.305 268.616C272.743 268.616 272.182 267.868 271.807 267.306C270.496 265.621 270.684 263.748 271.62 261.876C271.432 260.565 271.058 259.067 271.058 257.757C271.058 248.395 271.058 239.22 271.058 229.858C271.058 228.36 271.245 227.049 271.62 225.551C271.807 224.99 272.369 224.428 273.118 224.054C273.679 223.679 274.428 223.679 275.177 223.679C285.101 223.679 283.79 222.743 288.846 230.794C290.905 234.165 292.965 237.535 295.025 240.718C295.399 241.28 296.148 241.467 296.71 241.654C297.646 241.841 297.833 241.28 297.833 240.343C297.833 236.411 297.833 232.479 298.021 228.547C298.021 227.424 298.208 226.3 298.395 225.364C298.582 224.803 299.331 224.054 299.893 224.054C302.702 223.866 305.51 223.866 308.319 224.054C309.068 224.054 310.378 225.364 310.378 225.926C310.753 230.232 310.753 234.539 310.94 238.658C313.561 241.654 313.749 245.399 313.374 249.144C313 251.578 312.063 253.076 310.94 254.573Z" fill="#253978"/>
<path d="M312.625 239.22C313.562 237.348 314.31 235.288 315.434 233.416C324.234 220.309 342.584 220.122 351.758 230.233C353.256 231.731 354.567 233.416 355.877 235.101C357.001 236.225 357.75 237.535 357.937 239.22C358.499 243.152 358.312 247.084 357.937 251.204C357.75 252.14 357.563 253.076 357.375 253.825C357.001 255.136 356.252 256.259 355.69 257.382C355.316 258.131 354.754 258.693 354.192 259.442C353.069 260.004 352.133 260.566 351.758 261.876C345.579 272.174 326.481 273.298 317.119 261.876C315.247 259.629 313.936 257.008 312.438 254.761C311.315 253.263 311.502 251.391 311.502 249.706C312.251 246.148 310.94 242.591 312.625 239.22Z" fill="#263978"/>
<path d="M271.619 262.25C271.619 264.123 271.62 265.808 271.807 267.68C267.875 270.114 263.381 269.178 259.262 268.803C258.513 268.803 257.389 267.68 257.015 266.744C255.891 263.935 254.019 262.999 251.211 262.999C248.964 262.999 246.904 262.999 244.657 262.999C242.223 262.999 240.538 263.935 239.789 266.369C239.04 268.242 237.542 269.178 235.67 269.178C233.61 269.178 231.363 269.178 229.303 269.178C227.993 269.178 226.682 267.493 226.87 266.182C226.87 265.808 226.869 265.433 227.057 265.059C231.738 252.701 236.606 240.343 241.287 227.798C242.41 224.99 244.095 223.866 246.904 224.053C248.776 224.053 250.462 224.053 252.334 224.241C253.457 224.428 254.393 224.802 254.768 225.926C256.079 229.296 257.577 232.479 258.887 235.849C262.07 244.275 265.253 252.701 268.436 261.127C268.811 263.186 270.309 262.625 271.619 262.25Z" fill="#273A78"/>
<path d="M359.997 232.854C359.997 234.352 360.184 235.663 360.184 237.161C360.184 242.403 362.805 245.961 367.299 248.395C369.546 249.518 371.793 250.455 374.227 251.391C375.537 251.953 376.848 252.702 377.972 253.451C378.346 253.825 378.721 254.761 378.533 255.323C378.533 255.885 377.784 256.634 377.223 256.821C374.788 257.757 372.354 257.195 369.92 256.072C368.984 255.697 368.048 255.136 367.112 254.574C365.988 254.012 364.865 254.199 364.116 254.761C362.243 256.259 360.184 257.944 358.686 259.817C358.124 260.566 358.499 261.876 358.311 263C356.814 262.251 355.503 261.689 354.005 260.94C353.443 260.566 353.256 260.004 353.443 259.629C353.631 259.068 353.818 258.88 354.005 258.88C355.128 257.57 354.754 255.697 356.252 254.574C357.937 249.144 357.562 243.901 356.439 238.471C356.439 237.348 356.252 236.225 356.252 235.101C357.375 234.352 358.686 233.603 359.997 232.854Z" fill="#E9B117"/>
<path d="M312.627 239.22C312.627 242.965 312.44 246.71 312.44 250.267C311.878 250.267 311.504 250.267 310.942 250.267C310.568 246.522 310.006 242.965 310.942 239.22C311.504 239.22 312.066 239.22 312.627 239.22Z" fill="#8A6D69"/>
<path d="M310.941 250.267C311.503 250.267 311.878 250.267 312.439 250.267C312.627 251.765 312.627 253.076 312.814 254.574H311.878H310.941C310.941 253.076 310.941 251.765 310.941 250.267Z" fill="#A98951"/>
<path d="M354.005 258.88C354.005 259.629 354.005 260.191 354.193 260.94C353.631 261.314 352.882 261.502 352.133 261.689C352.133 260.378 352.695 259.442 354.005 258.88Z" fill="#2B3B78"/>
<path d="M334.719 235.849C339.025 235.662 343.519 239.219 344.83 243.9C346.515 249.892 341.459 258.13 333.408 256.82C330.787 256.445 328.727 254.947 327.229 252.888C324.608 249.33 324.608 245.398 326.293 241.653C327.791 238.096 330.974 236.223 334.719 235.849Z" fill="#F1B700"/>
<path d="M356.252 238.471C356.626 239.033 357.375 239.595 357.562 240.157C358.686 244.463 358.686 248.582 357.375 252.889C357.188 253.451 356.626 254.012 356.065 254.574C356.252 249.144 356.252 243.901 356.252 238.471Z" fill="#2B3B78"/>
<path d="M356.063 254.573C356.063 256.446 355.689 257.944 353.816 258.88C353.816 257.007 354.191 255.322 356.063 254.573Z" fill="#2B3B78"/>
<path d="M250.648 250.267C250.648 251.203 248.963 252.139 247.465 251.952C246.529 251.765 245.406 250.641 245.593 249.892C245.967 248.207 246.342 246.522 246.716 244.837C246.904 243.901 247.465 243.526 248.401 243.901C248.963 244.088 249.712 244.462 249.899 245.024C250.648 246.709 251.023 248.394 250.648 250.267Z" fill="#D59F3C"/>
<rect x="226" y="219" width="178" height="53" fill="#FBBE00"/>
<path d="M258.572 262.787H243.788L242.044 268.173C241.777 268.998 241.008 269.557 240.141 269.557H229.851C228.465 269.557 227.499 268.18 227.971 266.876L242.747 226.078C243.034 225.287 243.785 224.759 244.627 224.759H257.857C258.699 224.759 259.452 225.288 259.738 226.081L274.457 266.878C274.927 268.182 273.961 269.557 272.575 269.557H262.219C261.352 269.557 260.584 268.998 260.317 268.173L258.572 262.787ZM255.189 252.22L251.18 239.755L247.171 252.22H255.189Z" fill="#233979"/>
<path d="M316.106 267.557C316.106 268.662 315.211 269.557 314.106 269.557H303.281C302.606 269.557 301.977 269.216 301.607 268.651L287.478 247.032V267.557C287.478 268.662 286.583 269.557 285.478 269.557H275.571C274.467 269.557 273.571 268.662 273.571 267.557V226.759C273.571 225.655 274.467 224.759 275.571 224.759H286.386C287.067 224.759 287.701 225.105 288.068 225.678L302.199 247.664V226.759C302.199 225.655 303.095 224.759 304.199 224.759H314.106C315.211 224.759 316.106 225.655 316.106 226.759V267.557Z" fill="#233979"/>
<path d="M338.989 270C334.813 270 330.971 269.009 327.463 267.026C323.997 265.044 321.24 262.302 319.194 258.801C317.148 255.299 316.125 251.355 316.125 246.968C316.125 242.581 317.148 238.637 319.194 235.136C321.24 231.635 323.997 228.914 327.463 226.974C330.971 224.991 334.813 224 338.989 224C343.166 224 346.987 224.991 350.453 226.974C353.919 228.914 356.655 231.635 358.659 235.136C360.706 238.637 361.729 242.581 361.729 246.968C361.729 251.355 360.706 255.299 358.659 258.801C356.655 262.302 353.898 265.044 350.39 267.026C346.924 269.009 343.124 270 338.989 270ZM338.989 256.902C341.746 256.902 343.875 256.017 345.379 254.245C346.882 252.431 347.634 250.005 347.634 246.968C347.634 243.889 346.882 241.464 345.379 239.692C343.875 237.878 341.746 236.971 338.989 236.971C336.191 236.971 334.041 237.878 332.537 239.692C331.034 241.464 330.282 243.889 330.282 246.968C330.282 250.005 331.034 252.431 332.537 254.245C334.041 256.017 336.191 256.902 338.989 256.902Z" fill="#233979"/>
<path d="M379.086 270C373.783 270 369.398 268.756 365.931 266.267C363.022 264.117 361.243 261.129 360.594 257.304C360.402 256.168 361.328 255.194 362.48 255.194H373.296C374.337 255.194 375.144 256.02 375.509 256.996C376.024 258.368 377.028 259.054 378.523 259.054C379.274 259.054 379.901 258.885 380.402 258.547C380.945 258.168 381.216 257.598 381.216 256.839C381.216 255.785 380.652 254.941 379.525 254.308C378.397 253.633 376.643 252.874 374.263 252.03C371.423 251.018 369.063 250.027 367.184 249.056C365.347 248.086 363.76 246.673 362.423 244.817C361.087 242.961 360.44 240.578 360.481 237.667C360.481 234.757 361.212 232.289 362.674 230.264C364.177 228.197 366.203 226.636 368.75 225.582C371.339 224.527 374.242 224 377.458 224C382.887 224 387.188 225.265 390.362 227.796C393.079 229.935 394.708 232.811 395.249 236.425C395.416 237.546 394.495 238.49 393.362 238.49H382.4C381.321 238.49 380.531 237.589 380.097 236.601C379.95 236.266 379.759 235.989 379.525 235.769C378.94 235.221 378.23 234.946 377.395 234.946C376.81 234.946 376.33 235.157 375.954 235.579C375.578 235.959 375.39 236.507 375.39 237.224C375.39 238.237 375.933 239.08 377.019 239.755C378.147 240.388 379.922 241.168 382.344 242.096C385.142 243.151 387.439 244.163 389.235 245.133C391.072 246.104 392.659 247.453 393.995 249.183C395.332 250.912 396 253.085 396 255.7C396 258.442 395.332 260.91 393.995 263.103C392.659 265.254 390.717 266.942 388.17 268.165C385.622 269.388 382.594 270 379.086 270Z" fill="#233979"/>
</svg>
