<svg width="281" height="225" viewBox="0 0 281 225" fill="none" xmlns="http://www.w3.org/2000/svg">
<line y1="-0.795" x2="738.095" y2="-0.795" transform="matrix(1 8.74228e-08 8.74228e-08 -1 195.517 95.8854)" stroke="#F5F5F5" stroke-width="1.59"/>
<line y1="-0.795" x2="614.144" y2="-0.795" transform="matrix(1 8.74228e-08 8.74228e-08 -1 195.517 184.756)" stroke="#F5F5F5" stroke-width="1.59"/>
<line y1="-0.795" x2="731.079" y2="-0.795" transform="matrix(1 8.74228e-08 8.74228e-08 -1 202.531 7.48242)" stroke="#F5F5F5" stroke-width="1.59"/>
<line y1="-0.795" x2="93.5481" y2="-0.795" transform="matrix(4.37114e-08 -1 -1 -4.37114e-08 194.113 95.8854)" stroke="#F5F5F5" stroke-width="1.59"/>
<path d="M8.8877 192.708L8.88769 224.982" stroke="#F5F5F5" stroke-width="1.59"/>
<path d="M194.722 185.364L194.722 98.083L52.3877 98.083C28.8025 98.083 9.68274 117.203 9.68262 140.788L9.68262 185.364L194.722 185.364Z" stroke="#F5F5F5" stroke-width="1.59"/>
<circle cx="8.88707" cy="8.88707" r="8.88707" transform="matrix(1 8.74228e-08 8.74228e-08 -1 186.629 194.579)" fill="#F5F5F5"/>
<circle cx="8.88707" cy="8.88707" r="8.88707" transform="matrix(1 8.74228e-08 8.74228e-08 -1 186.629 17.7742)" fill="#F5F5F5"/>
<circle cx="8.88707" cy="8.88707" r="8.88707" transform="matrix(1 8.74228e-08 8.74228e-08 -1 186.629 106.176)" fill="#F5F5F5"/>
<circle cx="8.88707" cy="8.88707" r="8.88707" transform="matrix(1 8.74228e-08 8.74228e-08 -1 0 194.579)" fill="#F5F5F5"/>
</svg>
