<svg width="15" height="13" viewBox="0 0 15 13" fill="none" xmlns="http://www.w3.org/2000/svg">
<path d="M5.20508 0.849609C5.32734 0.849372 5.44866 0.873707 5.56152 0.920898C5.67453 0.968168 5.77723 1.0376 5.86328 1.125H5.8623L7.66992 2.94531H13.2197C13.4667 2.94531 13.7036 3.04414 13.8779 3.21973C14.0522 3.39527 14.1504 3.63308 14.1504 3.88086V11.2725C14.1502 11.5047 14.0579 11.728 13.8945 11.8926C13.7312 12.057 13.5097 12.1501 13.2783 12.1504H1.73926C1.5032 12.1499 1.27694 12.0545 1.11035 11.8867C0.943938 11.7189 0.850021 11.4916 0.849609 11.2549V1.78613C0.849609 1.53832 0.947784 1.29959 1.12207 1.12402C1.29637 0.948579 1.53338 0.849609 1.78027 0.849609H5.20508ZM1.66992 11.2549C1.67009 11.2741 1.67824 11.2924 1.69141 11.3057C1.7046 11.3188 1.72214 11.3261 1.74023 11.3262H13.2773C13.2909 11.3261 13.3045 11.3206 13.3145 11.3105C13.3242 11.3006 13.3299 11.2869 13.3301 11.2725V3.88086C13.3301 3.85105 13.3183 3.8226 13.2979 3.80176C13.2771 3.78089 13.2485 3.76953 13.2197 3.76953H1.66992V11.2549ZM1.78027 1.67383C1.75145 1.67383 1.72286 1.68519 1.70215 1.70605C1.68149 1.72694 1.66992 1.75618 1.66992 1.78613V2.94531H6.51172L5.28125 1.70605C5.26074 1.68557 5.2335 1.67401 5.20508 1.67383H1.78027Z" fill="#233878" stroke="#233878" stroke-width="0.3"/>
</svg>
