<svg width="717" height="228" viewBox="0 0 717 228" fill="none" xmlns="http://www.w3.org/2000/svg">
<line y1="-0.792777" x2="636.326" y2="-0.792777" transform="matrix(1 0 0 -1 -52.4213 195.43)" stroke="#F5F5F5" stroke-width="1.58555"/>
<path d="M137 203.668L137 237.108" stroke="#F5F5F5" stroke-width="1.58555"/>
<path d="M422 204L422 237.44" stroke="#F5F5F5" stroke-width="1.58555"/>
<path d="M138.143 104.315V12.9006H-29.4883C-42.6234 12.9006 -53.2715 23.5487 -53.2715 36.6838V104.315H138.143Z" stroke="#F5F5F5" stroke-width="1.58555"/>
<path d="M136.793 196.315V103.901H399.424C412.559 103.901 423.207 114.549 423.207 127.684V196.315H136.793Z" stroke="#F5F5F5" stroke-width="1.58555"/>
<circle cx="9.20807" cy="9.20807" r="9.20807" transform="matrix(1 0 0 -1 128 205.108)" fill="#F5F5F5"/>
<circle cx="9.20807" cy="9.20807" r="9.20807" transform="matrix(1 0 0 -1 574.692 204.638)" fill="#F5F5F5"/>
<circle cx="9.20807" cy="9.20807" r="9.20807" transform="matrix(1 0 0 -1 128 24.4161)" fill="#F5F5F5"/>
<circle cx="9.20807" cy="9.20807" r="9.20807" transform="matrix(1 0 0 -1 127.936 114.108)" fill="#F5F5F5"/>
<circle cx="9.20807" cy="9.20807" r="9.20807" transform="matrix(1 0 0 -1 413 205.108)" fill="#F5F5F5"/>
</svg>
