<svg width="19" height="18" viewBox="0 0 19 18" fill="none" xmlns="http://www.w3.org/2000/svg">
<path d="M15.4208 2.23096H3.03382C2.00766 2.23096 1.17578 3.05751 1.17578 4.07711V15.154C1.17578 16.1736 2.00766 17.0002 3.03382 17.0002H15.4208C16.4469 17.0002 17.2788 16.1736 17.2788 15.154V4.07711C17.2788 3.05751 16.4469 2.23096 15.4208 2.23096Z" stroke="#424242" stroke-width="1.5" stroke-linejoin="round"/>
<path d="M10.7767 8.99996C11.2898 8.99996 11.7057 8.58669 11.7057 8.07689C11.7057 7.56708 11.2898 7.15381 10.7767 7.15381C10.2636 7.15381 9.84766 7.56708 9.84766 8.07689C9.84766 8.58669 10.2636 8.99996 10.7767 8.99996Z" fill="#424242"/>
<path d="M13.8704 8.99996C14.3835 8.99996 14.7994 8.58669 14.7994 8.07689C14.7994 7.56708 14.3835 7.15381 13.8704 7.15381C13.3573 7.15381 12.9414 7.56708 12.9414 8.07689C12.9414 8.58669 13.3573 8.99996 13.8704 8.99996Z" fill="#424242"/>
<path d="M10.7767 12.0771C11.2898 12.0771 11.7057 11.6638 11.7057 11.154C11.7057 10.6442 11.2898 10.231 10.7767 10.231C10.2636 10.231 9.84766 10.6442 9.84766 11.154C9.84766 11.6638 10.2636 12.0771 10.7767 12.0771Z" fill="#424242"/>
<path d="M13.8704 12.0771C14.3835 12.0771 14.7994 11.6638 14.7994 11.154C14.7994 10.6442 14.3835 10.231 13.8704 10.231C13.3573 10.231 12.9414 10.6442 12.9414 11.154C12.9414 11.6638 13.3573 12.0771 13.8704 12.0771Z" fill="#424242"/>
<path d="M4.58136 12.0771C5.09445 12.0771 5.51039 11.6638 5.51039 11.154C5.51039 10.6442 5.09445 10.231 4.58136 10.231C4.06828 10.231 3.65234 10.6442 3.65234 11.154C3.65234 11.6638 4.06828 12.0771 4.58136 12.0771Z" fill="#424242"/>
<path d="M7.67902 12.0771C8.19211 12.0771 8.60804 11.6638 8.60804 11.154C8.60804 10.6442 8.19211 10.231 7.67902 10.231C7.16594 10.231 6.75 10.6442 6.75 11.154C6.75 11.6638 7.16594 12.0771 7.67902 12.0771Z" fill="#424242"/>
<path d="M4.58136 15.1538C5.09445 15.1538 5.51039 14.7405 5.51039 14.2307C5.51039 13.7209 5.09445 13.3076 4.58136 13.3076C4.06828 13.3076 3.65234 13.7209 3.65234 14.2307C3.65234 14.7405 4.06828 15.1538 4.58136 15.1538Z" fill="#424242"/>
<path d="M7.67902 15.1538C8.19211 15.1538 8.60804 14.7405 8.60804 14.2307C8.60804 13.7209 8.19211 13.3076 7.67902 13.3076C7.16594 13.3076 6.75 13.7209 6.75 14.2307C6.75 14.7405 7.16594 15.1538 7.67902 15.1538Z" fill="#424242"/>
<path d="M10.7767 15.1538C11.2898 15.1538 11.7057 14.7405 11.7057 14.2307C11.7057 13.7209 11.2898 13.3076 10.7767 13.3076C10.2636 13.3076 9.84766 13.7209 9.84766 14.2307C9.84766 14.7405 10.2636 15.1538 10.7767 15.1538Z" fill="#424242"/>
<path d="M4.27148 1V2.23077M14.181 1V2.23077" stroke="#424242" stroke-width="1.5" stroke-linecap="round" stroke-linejoin="round"/>
<path d="M17.2788 5.30762H1.17578" stroke="#424242" stroke-width="1.5" stroke-linejoin="round"/>
</svg>
