<svg width="75" height="75" viewBox="0 0 75 75" fill="none" xmlns="http://www.w3.org/2000/svg">
<rect width="75" height="75" rx="10" fill="#11538F"/>
<path fill-rule="evenodd" clip-rule="evenodd" d="M53.8959 28.7604L43.1771 18.0416C42.8897 17.7545 42.5 17.5934 42.0938 17.5938H23.7188C22.0274 17.5938 20.6563 18.9649 20.6563 20.6563V54.3438C20.6563 56.0351 22.0274 57.4062 23.7188 57.4062H51.2812C52.9726 57.4062 54.3438 56.0351 54.3438 54.3438V29.8438C54.3441 29.4375 54.183 29.0478 53.8959 28.7604ZM43.625 22.8211L49.1164 28.3125H43.625V22.8211ZM51.2812 54.3438H23.7188V20.6563H40.5625V29.8438C40.5625 30.6894 41.2481 31.375 42.0938 31.375H51.2812V54.3438Z" fill="#F5F5F5"/>
</svg>
