<svg width="75" height="75" viewBox="0 0 75 75" fill="none" xmlns="http://www.w3.org/2000/svg">
<rect width="75" height="75" rx="10" fill="#FF9F16"/>
<path fill-rule="evenodd" clip-rule="evenodd" d="M57.6429 18H44.2143C41.5726 18 39.085 19.235 37.5 21.3333C35.915 19.235 33.4274 18 30.7857 18H17.3571C15.503 18 14 19.4924 14 21.3333V48C14 49.8409 15.503 51.3333 17.3571 51.3333H30.7857C33.5669 51.3333 35.8214 53.5719 35.8214 56.3333C35.8214 57.2538 36.573 58 37.5 58C38.427 58 39.1786 57.2538 39.1786 56.3333C39.1786 53.5719 41.4331 51.3333 44.2143 51.3333H57.6429C59.497 51.3333 61 49.8409 61 48V21.3333C61 19.4924 59.497 18 57.6429 18ZM30.7857 48H17.3571V21.3333H30.7857C33.5669 21.3333 35.8214 23.5719 35.8214 26.3333V49.6667C34.37 48.5822 32.6021 47.9971 30.7857 48ZM57.6429 48H44.2143C42.3979 47.9971 40.63 48.5822 39.1786 49.6667V26.3333C39.1786 23.5719 41.4331 21.3333 44.2143 21.3333H57.6429V48Z" fill="#F5F5F5"/>
</svg>
