<svg width="14" height="12" viewBox="0 0 14 12" fill="none" xmlns="http://www.w3.org/2000/svg">
<path fill-rule="evenodd" clip-rule="evenodd" d="M13.3075 1.10563C13.1861 1.01106 13.028 0.977634 12.8787 1.015L9.05813 1.97L5.22375 0.0525C5.11692 -0.000787735 4.99454 -0.0140893 4.87875 0.0150001L0.87875 1.015C0.656185 1.07063 0.500035 1.27059 0.5 1.5V10.5C0.500023 10.654 0.570966 10.7993 0.692317 10.894C0.813667 10.9888 0.971894 11.0223 1.12125 10.985L4.94187 10.03L8.77625 11.9475C8.84586 11.9818 8.92239 11.9998 9 12C9.04088 12 9.0816 11.9949 9.12125 11.985L13.1213 10.985C13.3438 10.9294 13.5 10.7294 13.5 10.5V1.5C13.5 1.3459 13.429 1.2004 13.3075 1.10563ZM5.5 1.30875L8.5 2.80875V10.6912L5.5 9.19125V1.30875ZM1.5 1.89062L4.5 1.14062V9.10938L1.5 9.85938V1.89062ZM12.5 10.1094L9.5 10.8594V2.89062L12.5 2.14062V10.1094Z" fill="#233878"/>
</svg>
