<svg width="51" height="50" viewBox="0 0 51 50" fill="none" xmlns="http://www.w3.org/2000/svg">
<path d="M29.7668 26.3105V36.6876C29.7668 38.1548 28.6092 39.3442 27.1568 39.3442H15.8512C14.3959 39.3442 13.2383 38.1548 13.2383 36.6876V20.7479C13.2424 20.0446 13.5255 19.3713 14.026 18.874C14.5265 18.3766 15.2042 18.0954 15.912 18.0913H21.6313C21.8293 18.0916 22.0252 18.1311 22.2077 18.2073C22.3902 18.2836 22.5555 18.3953 22.6941 18.5357L29.3268 25.2376C29.609 25.5243 29.7669 25.9095 29.7668 26.3105Z" stroke="#424242" stroke-width="1.22951" stroke-linejoin="round"/>
<path d="M21.502 18.0913V24.6121C21.5073 25.0588 21.6883 25.4857 22.0062 25.8016C22.3242 26.1175 22.7538 26.2973 23.2034 26.3027H29.7662" stroke="#424242" stroke-width="1.22951" stroke-linecap="round" stroke-linejoin="round"/>
<path d="M20.043 18.0917V14.952C20.0471 14.2487 20.3301 13.5754 20.8307 13.0781C21.3312 12.5807 22.0089 12.2995 22.7167 12.2954H28.4287C28.6278 12.2957 28.8248 12.3351 29.0085 12.4114C29.1921 12.4876 29.3588 12.5992 29.4988 12.7398L36.1315 19.4417C36.4135 19.7254 36.5716 20.1081 36.5714 20.5068V30.8917C36.5714 32.3589 35.4138 33.5483 33.9615 33.5483H30.2517" stroke="#424242" stroke-width="1.22951" stroke-linejoin="round"/>
<path d="M28.3067 12.2954V18.8162C28.3121 19.2629 28.4931 19.6898 28.811 20.0057C29.129 20.3216 29.5586 20.5014 30.0082 20.5068H36.571" stroke="#424242" stroke-width="1.22951" stroke-linecap="round" stroke-linejoin="round"/>
</svg>
