<svg width="75" height="75" viewBox="0 0 75 75" fill="none" xmlns="http://www.w3.org/2000/svg">
<rect width="75" height="75" rx="10" fill="#CD2828"/>
<path fill-rule="evenodd" clip-rule="evenodd" d="M60.8647 20.2579C60.4248 19.9151 59.8515 19.7939 59.3105 19.9294L45.4607 23.3913L31.5611 16.4403C31.1738 16.2471 30.7302 16.1989 30.3105 16.3044L15.8105 19.9294C15.0037 20.131 14.4376 20.8559 14.4375 21.6875V54.3125C14.4376 54.8706 14.6948 55.3975 15.1346 55.7409C15.5745 56.0843 16.1481 56.206 16.6895 56.0706L30.5393 52.6088L44.4389 59.5597C44.6912 59.6841 44.9687 59.7492 45.25 59.75C45.3982 59.7499 45.5458 59.7317 45.6895 59.6956L60.1895 56.0706C60.9963 55.869 61.5624 55.1441 61.5625 54.3125V21.6875C61.5626 21.1289 61.3052 20.6014 60.8647 20.2579ZM32.5625 20.9942L43.4375 26.4317V55.0058L32.5625 49.5683V20.9942ZM18.0625 23.1035L28.9375 20.3848V49.2715L18.0625 51.9902V23.1035ZM57.9375 52.8965L47.0625 55.6152V26.7285L57.9375 24.0098V52.8965Z" fill="#F5F5F5"/>
</svg>
