<svg width="564" height="735" viewBox="0 0 564 735" fill="none" xmlns="http://www.w3.org/2000/svg">
<path d="M220.346 2.27283C241.219 -0.357927 262.092 -0.577205 282.964 0.957397C322.045 3.80738 359.128 13.8927 394.212 31.431C473.927 71.55 526.331 134.249 552.311 218.653C559.861 242.987 563.413 267.76 563.857 293.191C564.301 312.045 563.635 331.118 560.749 349.752C555.197 384.61 544.095 417.495 526.775 448.187C485.03 522.286 422.19 570.955 340.032 594.851C323.6 599.674 306.946 602.524 289.848 604.059C277.858 605.155 266.089 606.032 254.098 605.813C207.024 604.936 162.17 595.07 119.98 574.244C116.871 572.709 113.763 571.393 110.654 570.297C110.21 570.078 108.878 570.956 108.878 571.394C108.656 575.121 108.433 578.847 108.433 582.793V758.177C108.433 761.465 107.101 763 103.993 763H-39.2299C-41.4503 763 -43.4489 763.001 -45.6693 762.782C-46.7795 762.562 -48.1112 761.904 -48.3334 760.589C-48.5554 756.862 -48.7777 753.135 -48.7777 749.189V540.921C-48.7777 536.756 -48.9994 532.59 -48.9994 528.205C-48.9994 521.848 -44.115 518.778 -40.3402 514.832C9.17689 463.313 39.3756 402.586 45.8151 331.995C51.5883 268.418 39.1539 208.13 6.29065 152.446C2.95996 147.842 -1.25858 143.238 0.295532 136.661C2.51603 133.592 4.95785 130.741 7.17834 127.672C48.2575 71.111 102.66 32.7461 170.385 12.3578C186.817 7.53475 203.471 4.46512 220.346 2.27283ZM180.868 166.915C180.424 164.723 178.869 164.065 177.092 164.942C169.543 169.107 162.659 173.93 155.998 179.192C114.03 212.734 89.3829 268.199 99.153 329.145C104.26 360.056 117.583 387.68 139.344 410.699C170.209 443.364 208.624 459.587 253.7 461.78C257.031 461.999 260.584 461.779 263.915 461.56C264.137 461.56 264.359 461.122 264.581 460.903C264.581 460.683 264.803 460.025 264.581 459.806C263.693 458.929 262.804 458.053 261.694 457.395C256.809 454.106 251.924 450.818 247.039 447.31C244.596 445.556 244.152 443.802 245.262 440.733C246.373 437.444 247.704 434.375 249.037 431.306C249.703 429.771 250.592 428.237 251.702 427.141C258.807 421.003 264.358 413.548 270.131 406.314C275.905 398.641 283.233 393.16 291.893 389.214C297.444 386.803 302.773 384.391 308.102 381.76C310.767 380.445 313.431 378.91 315.652 377.157C316.984 376.061 317.651 374.307 318.539 372.992C318.983 372.334 317.429 369.923 316.762 369.922C315.43 369.922 314.098 369.922 312.988 370.361C303.218 373.43 293.669 376.499 283.899 379.568C282.789 380.006 281.457 380.664 280.346 380.445C278.792 380.225 277.015 379.568 275.905 378.472C274.573 377.157 274.573 375.183 275.239 373.649C276.127 371.895 277.238 369.922 278.57 368.387C285.231 359.618 292.115 351.068 298.999 342.518C300.109 340.983 301.663 339.449 302.551 337.476C303.217 336.161 302.995 334.187 302.995 332.653C302.772 330.68 299.886 329.145 298.11 330.242C296.556 331.118 295.001 331.995 293.891 333.091C289.45 337.695 285.231 342.519 281.012 347.122C277.46 351.069 273.685 355.234 269.91 359.18C268.578 360.495 267.245 361.372 265.468 361.372C264.359 361.372 264.581 359.179 265.691 356.768C269.91 347.999 274.351 339.449 278.57 330.68C280.568 326.953 282.344 323.007 284.121 319.28C285.453 316.649 285.453 313.58 284.787 310.73C284.342 308.976 281.235 307.661 279.68 308.757C278.348 309.853 276.793 310.73 275.905 312.045C274.129 314.457 272.796 316.869 271.242 319.499C265.691 329.365 260.139 339.23 254.366 349.095C253.256 351.068 252.145 352.603 250.813 354.357C249.703 355.891 247.705 355.452 246.373 354.137C245.04 352.822 244.596 351.287 244.818 349.534C245.706 341.861 246.816 334.406 247.926 326.953C248.593 321.691 249.259 316.21 249.703 310.73C249.703 308.976 249.481 307.442 249.481 305.688C249.259 302.838 246.372 301.522 243.708 303.057C242.375 303.934 241.043 305.03 239.933 306.345C239.267 307.222 238.823 308.538 238.601 309.853C236.825 317.307 235.048 324.542 233.494 331.995C231.939 339.888 230.385 347.78 228.386 355.453C227.276 359.398 225.278 363.345 223.502 367.072C222.169 369.922 219.949 371.676 217.062 372.992C215.286 373.649 212.399 372.991 211.51 371.238C210.178 368.607 209.068 365.756 207.736 363.125C205.96 359.399 204.405 355.453 202.407 351.726C201.075 349.534 199.298 347.78 197.744 345.807C196.634 344.272 194.857 344.053 193.081 344.053C191.526 344.053 189.75 345.807 189.75 347.122C189.75 348.438 189.75 349.753 189.972 350.849C193.969 365.099 195.301 379.787 197.744 394.256V394.257C196.894 395.307 196.45 396.756 195.049 397.07C183.292 382.173 172.643 366.401 161.771 350.849C148.892 332.434 136.014 314.018 120.47 297.795C117.806 294.945 117.805 292.753 120.026 289.903C124.689 283.764 129.353 282.45 136.68 284.642C142.897 286.615 148.449 289.903 153.334 293.849C160.661 299.768 167.767 305.907 174.873 311.827C179.758 315.773 184.643 319.938 189.75 323.664C193.747 326.514 196.19 326.076 199.964 322.569C204.85 317.965 207.514 312.264 208.402 305.907C209.956 295.384 209.29 284.861 207.292 274.557C204.849 260.088 200.852 246.057 196.855 231.807C192.414 216.023 187.53 200.238 184.199 184.235C183.089 178.535 181.978 172.615 180.868 166.915ZM403.585 239.48C403.363 239.261 401.808 239.261 401.586 239.7C389.373 256.799 375.384 272.584 362.283 289.245C352.735 301.303 346.074 314.676 342.743 329.803C340.3 340.765 337.858 351.945 335.193 362.907C332.528 374.307 329.863 385.926 324.312 396.449C323.202 398.641 322.758 401.052 322.758 403.683C322.758 408.068 322.536 412.233 322.98 416.399C323.868 425.168 324.535 433.937 326.977 442.487C327.421 444.241 329.42 444.898 330.974 444.241C344.741 437.444 357.399 428.895 368.279 418.153C400.92 386.364 417.13 347.779 417.574 302.837C418.018 282.888 414.021 263.596 406.471 244.961C405.805 242.988 404.695 241.234 403.585 239.48ZM341.411 167.573C340.523 167.134 338.524 167.792 338.302 168.888C337.636 171.3 336.747 173.711 336.303 176.122C330.308 203.745 324.313 231.149 318.318 258.772C317.874 260.964 317.651 262.937 317.429 264.911C317.651 266.664 317.874 268.418 318.54 270.172C320.76 277.187 325.423 280.037 333.417 277.407C335.415 276.749 337.191 275.434 338.746 274.119C340.522 272.803 341.855 271.268 343.409 269.734C358.064 255.703 372.719 241.453 387.375 227.422C389.151 225.449 390.928 223.696 392.705 221.942C393.815 220.626 394.037 219.091 392.926 217.337C382.712 201.114 369.833 187.304 354.29 175.904C350.071 172.835 345.63 170.203 341.411 167.573ZM251.485 144.334C240.827 144.115 230.39 145.869 219.954 148.281C214.625 149.596 209.296 151.35 203.966 152.884C202.412 153.323 201.302 155.734 201.967 157.049C205.298 164.503 207.741 171.957 210.183 179.63C217.067 200.019 223.728 220.407 230.612 240.795C231.722 243.864 232.832 247.153 234.165 250.222C235.275 252.853 237.274 255.045 240.161 256.361C242.825 257.457 245.268 257.237 247.488 255.703C249.708 254.168 251.041 251.976 251.041 249.345C251.485 241.672 251.485 233.999 251.929 226.545C252.373 216.899 253.04 207.253 253.706 197.607C254.15 193.222 254.15 189.057 254.372 184.892C254.379 184.892 254.593 184.895 254.593 185.111C255.037 175.026 255.704 164.941 256.148 154.857C256.37 153.103 256.37 151.569 256.37 149.815C256.37 145.43 255.482 144.334 251.485 144.334ZM289.899 147.184C288.123 146.965 286.347 146.965 284.793 147.184C284.127 147.184 283.238 147.842 283.016 148.499C282.572 150.034 282.35 151.788 282.35 153.323V199.799C282.362 199.799 282.584 199.806 283.016 200.019V246.495C283.016 248.907 283.46 251.537 283.682 253.949C283.682 254.168 284.126 254.607 284.57 254.607C285.236 254.826 286.346 255.045 286.791 254.607C288.123 253.072 289.678 251.319 290.566 249.565C293.009 243.865 295.451 237.945 297.227 232.026C300.114 222.38 302.557 212.515 305.221 202.869C308.552 189.934 311.217 176.781 316.324 164.285C320.099 154.638 317.434 155.296 310.772 152.884C303.889 150.473 296.783 148.938 289.899 147.184Z" fill="#233878"/>
<path d="M-290.323 2.49377C-278.333 1.17841 -266.564 0.520661 -254.573 0.739868C-199.727 0.959098 -148.655 14.7703 -101.358 42.3932C-63.832 64.3162 -32.301 92.5972 -6.9873 127.893C-4.76685 130.743 -2.32397 133.594 -0.103516 136.663C1.89484 140.389 3.89288 144.116 6.11328 147.624C26.0977 180.508 39.4213 215.804 45.6387 253.511C47.415 264.692 49.1914 275.873 49.1914 287.273C49.1914 296.481 49.4135 305.688 49.1914 315.115C48.5253 348.657 41.6414 381.103 29.4287 412.234C13.4412 453.23 -10.3182 489.184 -42.0713 520.314C-44.7358 522.945 -47.1782 525.795 -49.8428 528.645C-52.9515 530.837 -56.0606 533.03 -58.9473 535.441C-92.4767 563.064 -130.003 583.014 -171.748 595.072C-187.736 599.676 -203.946 602.745 -220.6 604.499C-232.812 605.814 -245.247 606.471 -257.46 606.471C-316.525 606.471 -370.927 591.126 -420.666 559.776C-488.613 516.807 -532.579 456.299 -553.674 379.569C-561.001 352.604 -563 324.98 -563 297.138C-562.334 178.097 -483.728 57.3007 -350.276 14.7701C-330.736 8.63176 -310.752 4.46685 -290.323 2.49377ZM-256.792 155.954C-340.949 155.954 -406.01 221.942 -406.454 303.496C-406.676 382.857 -344.058 451.695 -256.349 451.476C-170.193 451.257 -107.132 383.734 -107.354 303.496C-107.576 221.285 -173.301 155.954 -256.792 155.954Z" fill="#233878"/>
</svg>
