<svg width="71" height="49" viewBox="0 0 71 49" fill="none" xmlns="http://www.w3.org/2000/svg">
<path d="M48.9057 0.143555C50.2094 -0.0228709 51.5132 -0.0365162 52.8168 0.0605469C55.2579 0.240854 57.5746 0.878707 59.766 1.98828C64.7452 4.5264 68.0182 8.49334 69.641 13.833C70.1126 15.3724 70.3349 16.9401 70.3627 18.5488C70.3905 19.7416 70.3487 20.949 70.1684 22.1279C69.8216 24.3332 69.1281 26.4137 68.0463 28.3555C65.4388 33.0434 61.5131 36.123 56.3813 37.6348C55.3552 37.9398 54.3152 38.1197 53.2475 38.2168C52.4985 38.2861 51.763 38.342 51.0141 38.3281C48.0737 38.2726 45.2714 37.6477 42.6362 36.3301C42.4422 36.2331 42.2481 36.1503 42.0541 36.0811C42.0264 36.0672 41.9428 36.1227 41.9428 36.1504C41.9289 36.386 41.9155 36.6216 41.9155 36.8711V47.9678C41.9154 48.1755 41.8321 48.2724 41.6381 48.2725H32.6918C32.5531 48.2725 32.4282 48.2727 32.2895 48.2588C32.2202 48.2449 32.1374 48.2032 32.1235 48.1201C32.1096 47.8843 32.0951 47.6481 32.0951 47.3984V34.2227C32.0951 33.9592 32.0815 33.6953 32.0815 33.418C32.0815 33.0157 32.3867 32.8209 32.6225 32.5713C35.7153 29.3119 37.6021 25.4699 38.0043 21.0039C38.3649 16.9818 37.5883 13.1674 35.5356 9.64453C35.3276 9.35335 35.0637 9.06238 35.1606 8.64648C35.2993 8.4523 35.4516 8.27133 35.5903 8.07715C38.1562 4.4987 41.5552 2.07213 45.7856 0.782227C46.8118 0.477156 47.8517 0.282238 48.9057 0.143555ZM46.4643 10.5605C46.4365 10.4219 46.3398 10.3801 46.2289 10.4355C45.7573 10.6991 45.3267 11.004 44.9106 11.3369C42.2893 13.459 40.7505 16.9685 41.3608 20.8242C41.6798 22.7796 42.5115 24.5272 43.8705 25.9834C45.7985 28.05 48.1985 29.0761 51.0141 29.2148C51.222 29.2287 51.4438 29.215 51.6518 29.2012C51.6656 29.2012 51.6799 29.174 51.6938 29.1602C51.6938 29.1464 51.7069 29.1051 51.6938 29.0908C51.6383 29.0353 51.5825 28.9791 51.5131 28.9375C51.2081 28.7295 50.9031 28.5216 50.5981 28.2998C50.4455 28.1889 50.4174 28.0779 50.4867 27.8838C50.5561 27.6758 50.6389 27.4813 50.7221 27.2871C50.7637 27.19 50.8197 27.0928 50.8891 27.0234C51.3328 26.6351 51.6799 26.1637 52.0405 25.7061C52.4011 25.2207 52.859 24.8737 53.3998 24.624C53.7464 24.4715 54.0789 24.3187 54.4115 24.1523C54.5779 24.0692 54.7446 23.9722 54.8832 23.8613C54.9664 23.792 55.0084 23.6809 55.0639 23.5977C55.0913 23.5558 54.9941 23.4033 54.9526 23.4033C54.8695 23.4033 54.7865 23.4039 54.7172 23.4316C54.1069 23.6258 53.5101 23.8195 52.8998 24.0137C52.8305 24.0414 52.7474 24.0832 52.6781 24.0693C52.5811 24.0555 52.4701 24.0137 52.4008 23.9443C52.3178 23.8612 52.3174 23.7367 52.3588 23.6396C52.4142 23.5288 52.4837 23.4037 52.5668 23.3066C52.9829 22.7519 53.4132 22.2108 53.8432 21.6699C53.9125 21.5728 54.0094 21.4754 54.0649 21.3506C54.1064 21.2674 54.0932 21.1429 54.0932 21.0459C54.0793 20.9211 53.8985 20.8242 53.7875 20.8936C53.6905 20.949 53.5931 21.004 53.5238 21.0732C53.2466 21.3644 52.9836 21.6698 52.7201 21.9609C52.4984 22.2104 52.2624 22.4741 52.0268 22.7236C51.9436 22.8069 51.8594 22.8623 51.7485 22.8623C51.6796 22.8617 51.6939 22.7235 51.7631 22.5713C52.0266 22.0166 52.3034 21.4756 52.5668 20.9209C52.6916 20.6851 52.8025 20.435 52.9135 20.1992C52.9966 20.0329 52.997 19.8393 52.9555 19.6592C52.9277 19.5482 52.7332 19.4648 52.6362 19.5342C52.553 19.6034 52.4562 19.6591 52.4008 19.7422C52.2899 19.8947 52.2069 20.0475 52.1098 20.2139C51.7631 20.838 51.4157 21.4618 51.0551 22.0859C50.9858 22.2107 50.9166 22.308 50.8334 22.4189C50.7641 22.5159 50.6393 22.4884 50.5561 22.4053C50.4729 22.3221 50.4455 22.2242 50.4594 22.1133C50.5148 21.6282 50.5835 21.1568 50.6528 20.6855C50.6943 20.3528 50.7363 20.0058 50.7641 19.6592C50.7641 19.5482 50.7504 19.4508 50.7504 19.3398C50.7366 19.1597 50.5564 19.0762 50.3901 19.1729C50.3068 19.2283 50.2231 19.2986 50.1537 19.3818C50.1123 19.4373 50.0846 19.5205 50.0707 19.6035C49.9598 20.075 49.8485 20.5325 49.7514 21.0039C49.6543 21.5032 49.5579 22.0028 49.433 22.4883C49.3637 22.7379 49.2383 22.9878 49.1274 23.2236C49.0441 23.4038 48.9052 23.5145 48.725 23.5977C48.6141 23.6391 48.434 23.598 48.3783 23.4873C48.2951 23.3209 48.2262 23.1401 48.143 22.9736C48.0321 22.738 47.9347 22.4886 47.81 22.2529C47.7268 22.1143 47.616 22.0027 47.519 21.8779C47.4496 21.7808 47.3379 21.7666 47.227 21.7666C47.1301 21.7668 47.0192 21.8778 47.019 21.9609C47.019 22.0442 47.0188 22.1279 47.0326 22.1973C47.1574 22.6478 47.2409 23.1052 47.3119 23.5645L47.519 24.9434C47.4658 25.0098 47.4376 25.1003 47.35 25.1201C46.616 24.178 45.9507 23.1808 45.2719 22.1973C44.4675 21.0323 43.6626 19.8671 42.6918 18.8408C42.5254 18.6605 42.5258 18.5211 42.6645 18.3408C42.9556 17.9528 43.247 17.8692 43.7045 18.0078C44.0929 18.1326 44.4394 18.3412 44.7446 18.5908C45.2023 18.9653 45.6464 19.354 46.0903 19.7285C46.3953 19.9781 46.7001 20.2418 47.019 20.4775C47.2686 20.6578 47.4219 20.6301 47.6576 20.4082C47.9628 20.1169 48.1285 19.7557 48.184 19.3535C48.2811 18.6878 48.2395 18.022 48.1147 17.3701C47.9621 16.4549 47.7129 15.5674 47.4633 14.666C47.1859 13.6675 46.8803 12.6686 46.6723 11.6562C46.603 11.2958 46.5336 10.921 46.4643 10.5605ZM60.3754 15.1514C60.3612 15.1376 60.2654 15.1375 60.2514 15.165C59.4885 16.2469 58.6146 17.2457 57.7963 18.2998C57.2 19.0626 56.7837 19.9083 56.5756 20.8652C56.423 21.5587 56.2704 22.2665 56.1039 22.96C55.9375 23.6812 55.771 24.4163 55.4242 25.082C55.3549 25.2207 55.3276 25.3736 55.3276 25.54C55.3275 25.8172 55.3136 26.0805 55.3412 26.3438C55.3967 26.8985 55.4377 27.4542 55.5903 27.9951C55.6181 28.1058 55.7433 28.147 55.8403 28.1055C56.7002 27.6755 57.4907 27.1347 58.1703 26.4551C60.2092 24.4439 61.2217 22.0025 61.2494 19.1592C61.2771 17.8972 61.0276 16.6768 60.5561 15.498C60.5145 15.3732 60.4448 15.2623 60.3754 15.1514ZM56.4926 10.6016C56.4372 10.5739 56.3125 10.6154 56.2983 10.6846C56.2567 10.8371 56.201 10.99 56.1733 11.1426C55.7988 12.8902 55.4247 14.6245 55.0502 16.3721C55.0225 16.5105 55.0084 16.6351 54.9946 16.7598C55.0084 16.8707 55.0223 16.9818 55.0639 17.0928C55.2025 17.5365 55.4936 17.7169 55.9926 17.5508C56.1173 17.5092 56.2286 17.4259 56.3256 17.3428C56.4366 17.2596 56.5205 17.1625 56.6176 17.0654C57.533 16.1778 58.4483 15.2763 59.3637 14.3887C59.4747 14.2638 59.5857 14.152 59.6967 14.041C59.7657 13.9579 59.7796 13.8608 59.7104 13.75C59.0724 12.7238 58.268 11.8501 57.2973 11.1289C57.0338 10.9348 56.7561 10.768 56.4926 10.6016ZM50.8754 9.13184C50.2097 9.11797 49.5576 9.2283 48.9057 9.38086C48.5728 9.46408 48.2395 9.57576 47.9067 9.67285C47.8099 9.70095 47.7413 9.85243 47.7826 9.93555C47.9906 10.407 48.1428 10.8789 48.2953 11.3643C48.7253 12.6542 49.1417 13.9445 49.5717 15.2344C49.641 15.4285 49.7102 15.6369 49.7934 15.8311C49.8627 15.9972 49.9875 16.1356 50.1674 16.2188C50.3337 16.2881 50.4868 16.2747 50.6254 16.1777C50.7641 16.0807 50.847 15.9417 50.8471 15.7754C50.8748 15.29 50.875 14.8045 50.9028 14.333C50.9305 13.7228 50.9725 13.1122 51.0141 12.502C51.0418 12.2246 51.0412 11.9608 51.0551 11.6973C51.0551 11.6973 51.0695 11.6974 51.0697 11.7109C51.0975 11.073 51.1387 10.4348 51.1664 9.79688C51.1802 9.68616 51.1801 9.58924 51.1801 9.47852C51.1801 9.20119 51.1249 9.13187 50.8754 9.13184ZM52.9555 9.31152C52.9139 9.31157 52.858 9.35392 52.8442 9.39551C52.8165 9.49247 52.8031 9.60329 52.8031 9.7002V12.6406C52.8047 12.6407 52.8184 12.6415 52.8442 12.6543V15.5947C52.8442 15.7473 52.8723 15.9139 52.8862 16.0664C52.8862 16.0803 52.9141 16.1084 52.9418 16.1084C52.9834 16.1222 53.0527 16.136 53.0805 16.1084C53.1637 16.0113 53.2604 15.9 53.3158 15.7891C53.4684 15.4285 53.6209 15.0541 53.7319 14.6797C53.9122 14.0694 54.0654 13.4452 54.2319 12.835C54.4399 12.0166 54.6062 11.1841 54.9252 10.3936C55.1609 9.78358 54.9944 9.82528 54.5785 9.67285C54.1486 9.5203 53.7047 9.42246 53.2748 9.31152C53.1639 9.29765 53.0526 9.29765 52.9555 9.31152Z" fill="#F5F5F5"/>
<path d="M19.2656 0.0473557C22.6914 0.0612675 25.8817 0.93455 28.8359 2.68212C31.1799 4.06909 33.1493 5.85833 34.7305 8.0913C34.8691 8.27153 35.0215 8.45191 35.1602 8.64599C35.2849 8.8817 35.4102 9.11749 35.5488 9.33935C36.7971 11.4197 37.6292 13.6531 38.0176 16.0386C38.1285 16.7459 38.2393 17.454 38.2393 18.1753C38.2393 18.7576 38.2531 19.3399 38.2393 19.936C38.1976 22.0581 37.7677 24.1111 37.0049 26.0806C36.0063 28.6742 34.5224 30.949 32.5391 32.9184C32.3727 33.0849 32.2201 33.2655 32.0537 33.4458C31.8595 33.5845 31.6647 33.7229 31.4844 33.8755C29.39 35.623 27.046 36.8851 24.4385 37.6479C23.44 37.9391 22.4278 38.1337 21.3877 38.2446C20.6248 38.3278 19.8478 38.3696 19.085 38.3696C15.3956 38.3696 11.9974 37.3989 8.89062 35.4155C4.64645 32.697 1.90067 28.8686 0.583008 24.0142C0.125321 22.3082 1.16292e-05 20.5607 0 18.7993C0.0416096 11.268 4.95135 3.62489 13.2871 0.934074C14.5076 0.545722 15.7562 0.282539 17.0322 0.157707C17.7812 0.0744875 18.5166 0.0334857 19.2656 0.0473557ZM19.127 9.86669C13.8703 9.86672 9.80606 14.042 9.77832 19.2017C9.76467 24.2223 13.676 28.5766 19.1543 28.563C24.5357 28.5491 28.4756 24.2779 28.4619 19.2017C28.448 14.0004 24.3421 9.86669 19.127 9.86669Z" fill="#F5F5F5"/>
</svg>
