<svg width="874" height="824" viewBox="0 0 874 824" fill="none" xmlns="http://www.w3.org/2000/svg">
<path d="M337.127 -154.817C349.555 -166.062 362.576 -164.582 372.045 -150.971C373.821 -148.308 375.596 -147.716 378.259 -147.124C382.402 -146.236 386.544 -145.053 389.207 -140.614C390.687 -137.951 394.239 -136.768 398.085 -137.359C411.993 -139.726 421.166 -132.624 428.268 -121.38C433.002 -119.013 436.257 -115.462 437.737 -110.432C440.104 -102.146 444.838 -99.1876 453.123 -102.146C469.102 -114.279 480.348 -113.687 494.847 -100.075C497.214 -98.004 498.694 -96.2277 502.54 -97.1152C518.223 -100.666 522.662 -98.0033 528.284 -83.5039C529.764 -82.3204 532.131 -80.8407 532.131 -79.0654C531.835 -63.3825 543.672 -54.5051 552.549 -44.7402C566.753 -28.4654 572.375 -9.23096 575.038 10.8906C577.11 26.2776 576.518 26.5742 591.313 23.0234C596.047 20.9521 600.782 19.4726 605.813 20.6562C613.802 19.4727 620.313 23.3192 626.231 27.7578C631.557 23.6151 634.812 17.4005 639.25 12.3701C650.791 -1.24135 664.698 -5.0878 678.31 4.97266C696.36 18.2885 716.779 23.911 737.492 29.2373C769.746 37.8187 799.929 52.0223 833.367 56.7568C849.346 59.1241 865.325 61.4912 881.6 60.3076C896.691 59.1241 908.527 64.155 917.109 76.583C926.873 83.6848 928.649 93.4499 926.282 104.398C923.618 116.53 917.701 127.183 909.119 136.061C899.946 145.826 890.181 155.295 880.712 164.764C872.131 173.345 862.07 179.263 850.53 182.518C828.928 188.436 814.133 202.344 802.888 220.69C792.531 237.557 784.542 255.904 774.481 273.066C770.634 279.576 770.93 286.678 773.001 293.779C777.144 308.575 778.623 323.667 777.736 338.758C777.144 351.482 778.919 363.91 783.062 375.746C792.531 403.561 787.205 427.826 770.634 451.203C764.716 459.489 759.685 468.07 755.542 477.539C749.92 489.967 751.991 500.916 758.797 512.16C765.011 522.517 772.113 532.578 776.552 543.822C784.541 564.24 783.358 584.362 775.073 603.892C766.195 624.901 747.553 632.004 726.543 635.555C705.83 638.81 685.412 636.442 666.178 628.748C640.434 618.687 620.312 626.973 601.966 644.432C586.283 659.227 572.671 676.093 554.62 688.226C530.356 704.501 503.428 715.154 476.796 726.694C464.368 732.021 451.644 736.755 440.104 743.265C431.818 747.703 426.492 754.509 424.124 763.091C411.992 808.661 390.392 850.384 369.086 892.107C363.464 903.352 361.984 914.3 367.31 926.137C369.381 931.167 370.862 936.197 373.229 941.228C385.657 966.38 388.616 992.716 382.993 1019.94C379.738 1035.92 379.147 1051.9 375.3 1067.58C368.79 1093.92 349.852 1102.79 325.587 1091.55C316.71 1087.41 307.833 1083.56 300.139 1077.64C268.773 1062.55 256.049 1036.51 258.416 1002.78C259.008 992.421 256.048 985.614 247.171 980.584C232.08 971.707 220.836 958.687 209.295 945.963C198.051 933.831 195.092 919.922 201.306 904.831C206.928 891.515 211.071 877.608 215.509 863.996C220.54 848.017 230.305 835.292 242.437 824.64C242.46 824.344 242.492 824.056 242.532 823.773C250.705 817.674 259.389 812.084 264.632 803.054C264.324 803.127 264.015 803.198 263.706 803.271C263.818 803.198 263.931 803.128 264.042 803.055C267.297 798.32 271.439 792.994 267.593 787.668C263.45 781.75 256.644 782.637 250.134 784.708C248.951 785.004 247.471 785.004 246.287 785.596C227.645 793.585 208.707 793.882 189.473 786.78C189.583 786.881 189.691 786.983 189.801 787.084C189.789 787.076 189.777 787.068 189.765 787.06C162.837 773.448 147.154 750.959 138.573 722.848C135.022 711.307 130.879 701.542 120.227 693.849C109.574 686.451 106.911 673.135 114.604 663.37C131.766 642.657 134.43 617.208 139.164 592.647C146.858 554.475 147.45 515.711 140.348 477.243C139.164 471.029 137.093 464.815 133.838 459.488C127.032 453.57 119.042 449.132 112.828 442.03C103.063 431.674 89.7477 429.01 76.7278 425.163C62.2286 421.02 47.4332 418.062 32.0462 421.316C27.9036 422.204 24.6478 421.021 21.6888 418.653C18.7299 418.062 15.7707 417.766 12.8118 416.878C-0.799971 412.143 -4.05471 398.532 5.41437 387.879C11.0366 381.961 18.7296 378.705 24.9437 373.379C52.1672 350.594 82.3499 332.248 112.533 313.605C124.665 305.912 134.43 295.851 142.419 284.015C171.418 240.516 201.009 197.609 222.315 149.672C235.335 120.081 243.621 88.7148 257.529 59.4199C267.294 38.7064 278.834 18.8805 286.824 -2.7207C292.446 -17.812 296.588 -32.9038 297.772 -48.5869C298.66 -58.3518 299.843 -68.4129 306.057 -76.4023C314.638 -87.3509 317.302 -99.7789 317.598 -113.095C317.894 -129.665 324.995 -143.869 337.127 -154.817ZM353.404 -126.097C349.557 -132.607 347.486 -129.648 345.414 -124.913C342.751 -118.995 341.864 -112.78 341.864 -106.271C341.863 -92.659 338.608 -79.6389 330.027 -68.6904C326.18 -63.66 324.109 -58.3332 323.517 -52.1191C321.445 -25.7836 314.047 -0.631454 303.099 23.3369C296.293 38.7241 288.303 53.2241 280.906 68.3154C266.998 97.3144 259.009 128.977 245.693 158.271C225.867 202.658 198.94 242.605 172.9 283.44C154.553 311.848 131.472 333.746 101.881 349.725C94.4835 353.867 87.3814 358.306 80.5755 363.04C69.331 371.325 58.3825 379.907 45.6585 389.376C58.9742 391.151 69.923 392.631 80.8714 394.11C80.8729 394.11 80.8748 394.11 80.8763 394.11C90.008 397.645 99.4334 401.18 109.444 404.715C109.29 404.829 109.138 404.944 108.985 405.059C113.629 407.671 118.274 410.281 123.477 412.894C123.479 412.939 123.479 412.985 123.482 413.031C130.583 418.653 137.685 424.572 144.786 430.49C146.31 431.337 147.663 432.401 148.945 433.559C160.116 448.118 166.719 464.321 169.262 482.689C174.874 521.676 174.283 560.664 166.309 599.061C160.697 625.347 158.333 653.406 138.84 675.853C153.017 682.646 158.63 695.051 163.06 708.342C165.127 714.249 166.9 720.453 169.558 726.359C176.245 741.768 185.222 755.46 201.84 762.082L202.637 762.393L202.638 762.394C205.296 763.279 207.954 764.166 210.317 765.052C210.294 764.942 210.27 764.831 210.246 764.722C210.367 764.831 210.488 764.943 210.613 765.051C217.11 767.709 223.904 768.004 230.402 764.756C230.275 764.406 230.146 764.056 230.018 763.706C235.676 762.296 241.162 760.543 246.875 759.244C264.63 755.102 280.017 758.949 290.965 774.336C291.479 774.713 291.982 775.102 292.478 775.5C291.79 775.298 291.09 775.111 290.376 774.942C295.702 783.524 294.815 792.993 292.448 802.166C287.713 819.328 275.285 830.573 261.969 840.93C253.092 847.736 244.806 854.838 240.959 865.786C235.337 881.765 230.011 898.041 224.093 914.02C222.614 918.458 222.318 922.601 225.573 926.151C235.908 937.669 245.655 949.776 259.224 957.766C259.336 957.979 259.461 958.192 259.603 958.405C265.521 963.436 271.736 968.467 277.654 973.497C277.843 973.662 278.031 973.829 278.218 973.996C283.586 984.639 283.845 996.102 283.273 1008.12C281.509 1029.58 292.894 1046.96 312.201 1054.14C312.225 1054.19 312.25 1054.24 312.275 1054.28C316.391 1056.05 320.509 1057.81 324.625 1059.86C324.747 1059.98 324.871 1060.09 324.998 1060.2C329.437 1062.27 333.876 1064.34 338.019 1066.71C342.457 1069.07 344.529 1067 345.712 1062.86C345.56 1062.56 345.417 1062.25 345.28 1061.95C345.514 1062.05 345.755 1062.16 346.004 1062.25C348.371 1047.76 350.148 1033.55 353.107 1019.35C357.841 995.379 356.953 972.298 345.117 950.697C328.25 919.923 332.393 891.516 349.556 861.925C369.086 828.191 385.36 792.682 395.125 754.51C400.156 735.276 412.584 721.96 430.338 713.971C443.358 708.053 456.379 702.726 469.399 697.399C509.938 681.42 547.815 661.891 576.814 627.861C587.466 615.137 600.486 604.78 616.465 598.862C637.771 590.873 658.78 593.24 679.493 601.229C696.064 607.443 712.931 608.331 730.094 604.188C738.083 602.413 745.778 599.157 748.737 590.576C753.471 576.373 754.359 562.169 746.665 548.558C742.819 541.752 738.675 535.241 734.533 528.731C718.258 504.171 719.145 479.314 733.645 454.458C739.267 444.397 745.778 434.928 751.696 425.163C758.501 413.919 760.573 402.378 756.134 389.358C750.808 373.971 748.441 357.992 748.737 341.718C749.033 327.218 747.849 313.014 743.706 298.811C740.155 287.27 738.972 275.138 745.186 264.189C757.614 241.996 767.971 218.619 782.47 197.313C794.602 179.855 809.102 164.468 830.112 158.55C853.656 152.075 869.004 135.646 884.309 118.874C889.616 113.854 894.036 108.243 896.102 101.161C896.039 101.057 895.973 100.955 895.909 100.855C896.071 100.859 896.234 100.863 896.397 100.866C897.876 89.3259 894.03 84.295 883.377 84.8867C847.868 86.9581 813.838 80.4485 780.401 68.9082C750.514 58.5515 720.035 49.6741 689.557 41.6846C689.768 41.9039 689.981 42.1209 690.195 42.3359C689.983 42.2175 689.77 42.0993 689.558 41.9795C688.079 41.0919 686.894 40.5 685.414 39.9082C681.272 36.9493 677.128 33.9902 672.986 30.7354C662.629 23.3379 662.925 23.6336 654.344 33.6943C645.467 44.0509 636.589 57.6625 621.498 53.2246C607.295 49.0819 595.754 51.1532 583.03 56.1836C579.775 57.6629 575.632 57.3672 572.081 57.959C572.11 58.0332 572.141 58.1062 572.17 58.1797C554.865 53.4405 548.4 45.7386 546.631 28.0537C546.039 23.0234 546.038 17.9932 545.151 12.9629C541.896 -5.97513 537.754 -24.6177 520.295 -36.75C520.224 -36.7854 520.153 -36.8195 520.082 -36.8525C520.154 -36.9117 520.227 -36.9686 520.298 -37.0283C516.747 -41.1707 512.901 -45.6095 509.35 -49.752C509.349 -49.751 509.348 -49.75 509.347 -49.749L509.348 -49.752C507.869 -53.3025 505.502 -56.8538 504.614 -60.7002C503.134 -66.6178 500.175 -69.8743 493.666 -69.5791C488.636 -72.8336 482.718 -74.9058 479.167 -79.9355C474.137 -87.9245 469.994 -85.2616 465.26 -79.9355C458.902 -72.7108 451.697 -67.1807 441.441 -66.6504C430.586 -67.6007 424.981 -76.1358 417.91 -82.9121C417.809 -83.1145 417.704 -83.3113 417.597 -83.5039C417.328 -88.2169 413.994 -91.6578 412.291 -95.915C412.152 -96.0324 412.011 -96.1502 411.871 -96.2676C411.913 -96.2484 411.955 -96.2293 411.996 -96.21C406.966 -111.597 406.965 -111.598 390.987 -111.598C385.66 -111.598 380.925 -112.781 377.078 -116.332C374.612 -118.524 372.146 -120.208 368.975 -118.564C368.646 -118.509 368.288 -118.364 367.903 -118.107C362.281 -119.291 356.659 -120.771 353.404 -126.097Z" fill="#233878" fill-opacity="0.08"/>
</svg>
